<svg xmlns="http://www.w3.org/2000/svg" width="16" height="10" viewBox="0 0 16 10">
  <path fill="#FF8C76" fill-rule="evenodd" d="M15.8988365,44.6615879 C15.8428761,44.6041986 15.7704536,44.5683296 15.6922177,44.5568496 C15.5932276,44.3925705 15.4332787,44.2684634 15.248881,44.2146599 C15.248881,44.2146599 15.2309519,44.2089226 15.1993859,44.2031799 C15.2072639,44.1830939 15.2116103,44.1608565 15.2116103,44.1379018 C15.2116103,44.0374665 15.1305492,43.9564 15.0300922,43.9564 C14.9303957,43.9564 14.848574,44.0374665 14.848574,44.1379018 C14.848574,44.1608565 14.8529205,44.1823768 14.8607984,44.2031799 C14.8335245,44.2082055 14.818475,44.2125084 14.818475,44.2125084 C14.6312521,44.2655948 14.4683693,44.390419 14.3679666,44.5568496 C14.2897307,44.5683296 14.2173082,44.6041986 14.1620541,44.6615879 C14.0967489,44.7283057 14.0608908,44.817261 14.0608908,44.9105193 C14.0608908,45.1070869 14.220894,45.267063 14.4174617,45.267063 C14.4985228,45.267063 14.5752917,45.2405172 14.6369568,45.1917338 C14.690744,45.2398 14.7603413,45.267063 14.8342308,45.267063 C14.9081202,45.267063 14.9770113,45.2405172 15.0300922,45.1931682 C15.083173,45.2405172 15.1527704,45.267063 15.2259535,45.267063 C15.3005493,45.267063 15.3701466,45.2398 15.4232275,45.1917338 C15.4856532,45.2405172 15.5623679,45.267063 15.6427226,45.267063 C15.8392903,45.267063 15.9999999,45.1070869 15.9999999,44.9105193 C15.9999999,44.817261 15.9641418,44.7283057 15.8988365,44.6615879 Z M2.53613576,49.646681 C1.49808134,48.9838491 0.626462898,48.587128 1.18673509,47.3754496 C1.28717042,47.1580734 1.38904006,47.0095882 1.45001516,46.7900659 C1.50238431,46.6021096 1.50597555,46.3022434 1.50381863,46.0411202 C1.15804317,46.1530302 0.873242799,46.2297883 0.636503171,46.251314 C0.29431243,46.2828746 0.0920101763,46.1910506 0.017402096,45.9693823 C-0.0414233605,45.7936232 0.0504017768,45.5511462 0.269921305,45.3036492 L0.302203389,45.267063 C0.917717729,45.4858627 1.11427997,45.3861446 0.500201582,45.0805411 L0.584134022,45.0188488 C0.645114552,44.9736513 0.708958297,44.9306107 0.775676125,44.8911505 L0.805807809,44.873216 C1.5540363,45.2455373 2.06912183,45.2168454 1.08702237,44.7283057 L1.22906397,44.6788052 C1.32088791,44.646522 1.41702026,44.6185473 1.51386434,44.597027 L1.5361018,44.5927186 C2.19824908,44.9219993 2.71261202,44.9420853 1.93568618,44.5066319 L2.31446741,44.5561324 C2.69539469,44.6063501 2.97230628,44.7591546 3.03830694,44.9549996 C3.11219639,45.1766734 3.00674093,45.3725185 2.71476351,45.5540149 C2.51102965,45.6802735 2.23555239,45.7914662 1.88905433,45.9119875 C1.9156002,46.1817275 1.94716621,46.4528964 1.95505499,46.7233481 C1.96653502,47.113631 1.54399602,48.1889399 2.12794544,48.1021741 C2.32163903,48.0734876 2.94791189,47.4801988 3.3195215,47.3604001 C3.40416839,47.3331262 3.48953787,47.3123176 3.57562451,47.2979744 C3.76214648,47.2671146 3.95153709,47.2692879 4.13948795,47.3144908 C4.40133369,47.3783291 4.59717877,47.6107549 4.85328721,47.6939892 C5.16606778,47.7943919 5.80526586,47.6717137 5.99031547,48.028991 C6.07354976,48.1889399 6.03839794,48.3948524 5.99031547,48.5684383 C5.93799522,48.7614201 5.84253657,48.9536957 5.6991041,49.0928904 C5.45874607,49.3274351 5.16534518,49.4831462 4.88843903,49.6724879 C4.97811149,49.7299152 5.18184535,49.7012288 5.5513252,49.5433987 C5.94158103,49.3755175 6.24354983,48.8963227 6.41719004,48.4988953 C7.43659281,48.8891511 7.83543286,49.1086462 8.16402359,49.4608707 C7.15967036,50.6675506 7.52265229,51.8849337 7.62810775,53.7106551 C6.22562077,53.5055032 4.94295967,52.7594371 4.19975132,51.9337225 C3.55123556,51.2141696 3.54047269,50.2894648 2.53613576,49.646681 Z M3.48093192,48.2233854 C3.50030073,48.2327302 3.52182104,48.2384893 3.54477566,48.2384893 C3.62512501,48.2384893 3.69040851,48.173184 3.69040851,48.092123 C3.69040851,48.0117682 3.62512501,47.946463 3.54477566,47.946463 C3.52684117,47.946463 3.50962384,47.9501031 3.49312368,47.9558078 C3.43788588,47.9766164 3.39843109,48.0296972 3.39843109,48.092123 C3.39843109,48.1502022 3.43214858,48.1997516 3.48093192,48.2233854 Z M15.4275196,45.3524325 C15.3658545,45.3847103 15.2969635,45.4019276 15.2259535,45.4019276 C15.1570625,45.4019276 15.0903447,45.3861446 15.0300922,45.3553012 C14.9698397,45.3861446 14.9031218,45.4019276 14.8342308,45.4019276 C14.7632209,45.4019276 14.6943298,45.3847103 14.633371,45.3524325 C14.5666532,45.3847103 14.4927637,45.4019276 14.4174617,45.4019276 C14.3851894,45.4019276 14.3528628,45.3990589 14.3227637,45.3926045 C14.3449848,45.538949 14.3328148,45.6946222 14.3908941,45.8302093 C14.4224601,45.9033816 14.4963495,45.9822912 14.575998,45.9822912 L14.8650905,45.9822912 C14.8392835,46.2326623 14.8113033,46.4837452 14.8041317,46.7348281 C14.7933743,47.1250948 15.2159024,48.2004579 14.6319584,48.1136378 C14.4382703,48.0849513 13.8119485,47.4916625 13.4403824,47.3718638 C13.3342206,47.3381246 13.2272982,47.3137302 13.1189632,47.3001476 C12.9532553,47.2800453 12.7861347,47.2865106 12.6204268,47.3266609 C12.3585539,47.3904992 12.1626925,47.622925 11.9058723,47.705453 C11.5937981,47.8066163 10.9546543,47.6832318 10.7688441,48.041161 C10.6863161,48.2004579 10.7214679,48.4070768 10.7688441,48.5799563 C10.8219249,48.7729382 10.9173293,48.9651594 11.0608161,49.1050604 C11.3011198,49.3389531 11.5945587,49.4946099 11.8714268,49.684006 C11.7817815,49.7420853 11.5773359,49.7133988 11.2078887,49.5548624 C10.8176328,49.3876876 10.516316,48.9084927 10.3427301,48.5110653 C7.28664069,49.6797139 7.66760601,50.7141662 7.88422163,53.7451006 C8.03488004,53.7609108 8.18771168,53.769495 8.34266221,53.769495 L8.35124642,53.769495 C10.2508573,53.7680824 11.7997106,53.0198431 12.7265885,51.9330162 C13.3255821,51.2306861 13.2567453,50.2772948 14.2237735,49.6589053 C15.2618117,48.9953128 16.1334355,48.599298 15.572419,47.387674 C15.4720163,47.1702977 15.3701466,47.0210519 15.3098941,46.8022631 C15.2524668,46.5963723 15.2539337,46.2577684 15.2567589,45.9822912 C15.3328216,45.9822912 15.4102969,45.9966399 15.4848926,45.9822912 C15.6011055,45.9593366 15.6570659,45.9098361 15.6692903,45.8316436 L15.738127,45.3926045 C15.7073216,45.3990589 15.6757556,45.4019276 15.6427226,45.4019276 C15.5681269,45.4019276 15.4942374,45.3847103 15.4275196,45.3524325 Z M13.2014912,47.9593936 C13.2057834,47.9586873 13.2100755,47.9586873 13.2151282,47.9586873 C13.295483,47.9586873 13.3607339,48.0239925 13.3607339,48.104293 C13.3607339,48.2972749 13.0694682,48.2972749 13.0694682,48.104293 C13.0694682,48.0282847 13.1268955,47.9658589 13.2014912,47.9593936 Z" transform="translate(0 -44)"/>
</svg>
