<svg xmlns="http://www.w3.org/2000/svg" width="20" height="25" viewBox="0 0 20 25">
  <path d="M18.5976,5.59929 L19.9874,21.4195 L20,21.4449 L20,21.4957 C20,22.4733 19.5452,23.3494 18.8377,23.9843 C18.1301,24.6064 17.1699,25 16.096,25 L3.89135,25 C2.83007,25 1.85723,24.6064 1.14972,23.9843 C0.442198,23.3494 0,22.4733 0,21.4957 L0,21.4449 L0,21.4195 L1.4024,5.59929 C1.41503,5.35805 1.52874,5.1549 1.69299,5.00254 C1.85723,4.86287 2.07202,4.774 2.29943,4.774 L4.95262,4.774 C5.02843,3.49162 5.58433,2.33621 6.43083,1.48553 C7.34049,0.571356 8.60392,0 9.99368,0 C11.3834,0 12.6469,0.571356 13.5692,1.48553 C14.4157,2.33621 14.9589,3.49162 15.0347,4.774 L17.6879,4.774 C17.928,4.774 18.1428,4.86287 18.307,5.00254 C18.4713,5.1549 18.5723,5.35805 18.5976,5.59929 Z M12.2931,2.7679 C11.6993,2.18385 10.8907,1.81564 9.99368,1.81564 C9.09665,1.81564 8.28806,2.18385 7.70689,2.7679 C7.18888,3.28847 6.83512,3.9868 6.75932,4.774 L13.228,4.774 C13.1522,3.9868 12.8111,3.28847 12.2931,2.7679 Z M3.89135,23.1717 L16.096,23.1717 C16.6898,23.1717 17.2078,22.9812 17.5869,22.6765 C17.9533,22.3718 18.1807,21.9782 18.1933,21.5338 L16.8667,6.58964 L15.0474,6.58964 L15.0474,8.40528 C15.0474,8.65922 14.9463,8.88776 14.7821,9.05282 C14.6178,9.21788 14.3904,9.31945 14.1503,9.31945 C13.8977,9.31945 13.6702,9.21788 13.506,9.05282 C13.3418,8.88776 13.2407,8.65922 13.2407,8.40528 L13.2407,6.58964 L6.74668,6.58964 L6.74668,8.40528 C6.74668,8.65922 6.64561,8.88776 6.48136,9.05282 C6.31712,9.21788 6.0897,9.31945 5.84965,9.31945 C5.59697,9.31945 5.36955,9.21788 5.20531,9.05282 C5.04106,8.88776 4.93999,8.65922 4.93999,8.40528 L4.93999,6.58964 L3.12066,6.58964 L1.8067,21.5211 C1.81933,21.9655 2.04675,22.3718 2.40051,22.6765 C2.77953,22.9812 3.31017,23.1717 3.89135,23.1717 Z"/>
</svg>
