<svg xmlns="http://www.w3.org/2000/svg" width="12" height="12" viewBox="0 0 12 12">
  <path d="M5.68933983,4.27512627 L9.67157288,0.292893219 C10.0620972,-0.0976310729 10.6952621,-0.0976310729 11.0857864,0.292893219 C11.4763107,0.683417511 11.4763107,1.31658249 11.0857864,1.70710678 L7.10355339,5.68933983 L11.0857864,9.67157288 C11.4763107,10.0620972 11.4763107,10.6952621 11.0857864,11.0857864 C10.6952621,11.4763107 10.0620972,11.4763107 9.67157288,11.0857864 L5.68933983,7.10355339 L1.70710678,11.0857864 C1.31658249,11.4763107 0.683417511,11.4763107 0.292893219,11.0857864 C-0.0976310729,10.6952621 -0.0976310729,10.0620972 0.292893219,9.67157288 L4.27512627,5.68933983 L0.292893219,1.70710678 C-0.0976310729,1.31658249 -0.0976310729,0.683417511 0.292893219,0.292893219 C0.683417511,-0.0976310729 1.31658249,-0.0976310729 1.70710678,0.292893219 L5.68933983,4.27512627 Z"/>
</svg>
