<svg xmlns="http://www.w3.org/2000/svg" width="19" height="18" viewBox="0 0 19 18">
  <path d="M13.1369,0 L5.0745,0 C2.34452,0 0.112061,2.23246 0.112061,4.96244 L0.112061,13.0248 C0.112061,15.7675 2.34452,18 5.0745,18 L13.1369,18 C15.8796,18 18.1121,15.7675 18.1121,13.0248 L18.1121,4.96244 C18.1121,2.23246 15.8796,0 13.1369,0 Z M16.5047,13.0248 C16.5047,14.8873 14.9994,16.3926 13.1369,16.3926 L5.0745,16.3926 C3.22475,16.3926 1.70667,14.8873 1.70667,13.0248 L1.70667,4.96244 C1.70667,3.11269 3.22475,1.59461 5.0745,1.59461 L13.1369,1.59461 C14.9994,1.59461 16.5047,3.11269 16.5047,4.96244 L16.5047,13.0248 Z"/>
  <path d="M9.10568 4.36285C6.55429 4.36285 4.47492 6.44223 4.47492 8.99361 4.47492 11.5578 6.55429 13.6371 9.10568 13.6371 11.6698 13.6371 13.7492 11.5578 13.7492 8.99361 13.7492 6.44223 11.6698 4.36285 9.10568 4.36285zM9.10568 12.0425C7.43452 12.0425 6.06953 10.6775 6.06953 8.99361 6.06953 7.32246 7.43452 5.95747 9.10568 5.95747 10.7896 5.95747 12.1546 7.32246 12.1546 8.99361 12.1546 10.6775 10.7896 12.0425 9.10568 12.0425zM13.9405 3.01062C13.6344 3.01062 13.3282 3.12543 13.1113 3.35506 12.8945 3.57192 12.7669 3.86533 12.7669 4.18426 12.7669 4.49042 12.8945 4.78383 13.1113 5.0007 13.3282 5.21757 13.6344 5.34513 13.9405 5.34513 14.2467 5.34513 14.5529 5.21757 14.7697 5.0007 14.9866 4.78383 15.1142 4.49042 15.1142 4.18426 15.1142 3.86533 14.9866 3.57192 14.7697 3.35506 14.5529 3.12543 14.2467 3.01062 13.9405 3.01062z"/>
</svg>
