<svg xmlns="http://www.w3.org/2000/svg" width="27" height="25" viewBox="0 0 27 25">
  <path d="M11.4074,9.15807 C10.9511,8.65363 11.0018,7.87174 11.5088,7.41774 C12.0158,6.96374 12.789,7.00158 13.2453,7.50602 L16.9717,11.6298 C17.1998,11.8442 17.3393,12.1595 17.3393,12.5 C17.3393,12.8405 17.1998,13.1432 16.9717,13.3702 L12.8777,17.4435 C12.3961,17.9228 11.6102,17.9228 11.1286,17.4435 C10.6469,16.9643 10.6469,16.1824 11.1286,15.7032 L13.1059,13.7359 L1.24214,13.7359 C0.557696,13.7359 0,13.181 0,12.5 C0,11.819 0.557696,11.2641 1.24214,11.2641 L13.3213,11.2641 L11.4074,9.15807 Z M7.42749,5.26125 C6.94585,5.74047 6.16,5.71525 5.69103,5.23603 C5.20939,4.7442 5.22206,3.96231 5.71638,3.4957 C8.21334,1.0996 11.4581,-0.0606178 14.6649,0.00243749 C17.8843,0.0528817 21.0784,1.33921 23.4866,3.82359 C25.8948,6.30797 27.0609,9.5364 26.9975,12.727 C26.9468,15.9302 25.654,19.1082 23.1571,21.5043 C20.6601,23.9004 17.428,25.0606 14.2086,24.9976 C10.9891,24.9471 7.79507,23.6608 5.38683,21.1764 C4.91786,20.6846 4.93054,19.9027 5.42486,19.4361 C5.90651,18.9695 6.69235,18.9821 7.16132,19.4739 C9.10058,21.4665 11.6609,22.5006 14.2466,22.551 C16.8323,22.5889 19.4306,21.6556 21.4459,19.7387 C23.4486,17.8093 24.4879,15.2618 24.5386,12.6892 C24.5893,10.1165 23.6514,7.53124 21.7121,5.52608 C19.7729,3.53353 17.2125,2.49943 14.6268,2.44898 C12.0412,2.39854 9.4428,3.33176 7.42749,5.26125 Z"/>
</svg>
