<svg width="28" height="23" viewBox="0 0 28 23" fill="none" xmlns="http://www.w3.org/2000/svg">
<path d="M1.44833 23C0.724197 23 5.91278e-05 22.2887 5.91278e-05 21.5773C5.91278e-05 20.6289 0.724197 19.9175 1.44833 19.9175H23.4139C24.138 19.9175 24.8621 20.6289 24.8621 21.5773C24.8621 22.2887 24.138 23 23.4139 23H1.44833ZM1.44833 2.84536C0.724197 2.84536 5.91278e-05 2.37113 5.91278e-05 1.42268C5.91278e-05 0.71134 0.724197 0 1.44833 0H26.5518C27.2759 0 28.0001 0.71134 28.0001 1.42268C28.0001 2.37113 27.2759 2.84536 26.5518 2.84536H1.44833ZM1.44833 12.3454C0.724197 12.3454 5.91278e-05 11.634 5.91278e-05 10.9227C5.91278e-05 9.97423 0.724197 9.5 1.44833 9.5H20.0345C20.7587 9.5 21.4828 9.97423 21.4828 10.9227C21.4828 11.634 20.7587 12.3454 20.0345 12.3454H1.44833Z" fill="#333E50"/>
</svg>
