<svg width="25" height="23" viewBox="0 0 25 23" fill="none" xmlns="http://www.w3.org/2000/svg">
<path d="M10.8369 0C13.8291 0 16.535 1.17355 18.4995 3.07899C20.4639 4.98443 21.6738 7.60914 21.6738 10.5115C21.6738 12.7828 20.9322 14.8776 19.6703 16.5937L24.5749 20.8589C25.0953 21.3132 25.1473 22.0829 24.679 22.5877C24.2106 23.0924 23.417 23.1429 22.8967 22.6886L17.9791 18.4234C16.0667 20.0387 13.5689 21.0229 10.8369 21.0229C7.84471 21.0229 5.12573 19.8494 3.17431 17.9439C1.20988 16.0385 0 13.4138 0 10.5115C0 7.60914 1.20988 4.98443 3.17431 3.07899C5.12573 1.17355 7.84471 0 10.8369 0ZM16.7042 4.82038C15.1951 3.36922 13.1266 2.46067 10.8369 2.46067C8.54722 2.46067 6.46571 3.36922 4.96962 4.82038C3.46052 6.28416 2.53685 8.29055 2.53685 10.5115C2.53685 12.7324 3.46052 14.7514 4.96962 16.2025C6.46571 17.6537 8.54722 18.5623 10.8369 18.5623C13.1266 18.5623 15.1951 17.6537 16.7042 16.2025C18.2002 14.7514 19.1239 12.7324 19.1239 10.5115C19.1239 8.29055 18.2002 6.28416 16.7042 4.82038Z" fill="#333E50"/>
</svg>
