<svg xmlns="http://www.w3.org/2000/svg" width="17" height="14" viewBox="0 0 17 14">
  <path d="M16.364,2.0957 C15.7853,2.34886 15.1564,2.52608 14.4897,2.61468 C15.169,2.20962 15.6847,1.56405 15.9363,0.791898 C15.2947,1.17164 14.6029,1.43747 13.8607,1.58937 C13.2695,0.956455 12.4141,0.551392 11.4832,0.551392 C9.68433,0.551392 8.21254,2.01975 8.21254,3.82987 C8.21254,4.0957 8.25028,4.3362 8.30059,4.57671 C5.59602,4.45013 3.19335,3.14633 1.58318,1.15899 C1.29386,1.64 1.14291,2.20962 1.14291,2.80456 C1.14291,3.9438 1.70898,4.9438 2.58954,5.53873 C2.04862,5.51342 1.55803,5.37418 1.11775,5.12101 L1.11775,5.15899 C1.11775,6.75392 2.23731,8.08304 3.72169,8.38683 C3.45752,8.46278 3.16819,8.50076 2.86629,8.50076 C2.66501,8.50076 2.45116,8.47544 2.24989,8.43747 C2.66501,9.74127 3.87264,10.6906 5.29411,10.7159 C4.18712,11.5894 2.77823,12.121 1.24354,12.121 C0.991952,12.121 0.727785,12.1084 0.476196,12.0704 C1.92283,13.0071 3.63363,13.5514 5.47022,13.5514 C11.4706,13.5514 14.7538,8.55139 14.7538,4.22228 L14.7413,3.7919 C15.3828,3.32354 15.9363,2.75392 16.364,2.0957 Z"/>
</svg>
