<svg height="305" viewBox="0 0 300 305" width="300" xmlns="http://www.w3.org/2000/svg"><g fill="#fff" fill-rule="evenodd"><path d="m5.74719 202.762.40933-.344 1.79575 1.334 17.90473-14.722-.9639-2.021.4225-.343 12.1874 14.815-5.0308 4.133-.6998-.845c0-.581.0925-1.175.3169-1.796.1849-.528.4622-1.109.8319-1.73.3829-.62.9507-1.241 1.6901-1.848l-4.8195-5.863-7.4075 6.087 1.2676 1.545c1.3072 1.598 2.2975 3.063 2.9313 4.397s.9903 2.548 1.0696 3.631c.0528 1.083-.1321 2.06-.6074 2.945-.4622.884-1.1224 1.677-1.9938 2.403-.8715.713-1.7958 1.215-2.7597 1.505-.9507.277-1.9542.291-3.0105.026-1.0564-.277-2.1655-.858-3.3539-1.742-1.1751-.885-2.4295-2.14-3.7499-3.737zm5.86261 5.717 1.2676 1.545c.9243 1.109 2.1126 1.69 3.5651 1.743 1.4524.053 3.0237-.607 4.7006-1.981 1.677-1.373 2.6277-2.786 2.8389-4.225.2377-1.426-.1188-2.707-1.0299-3.816l-1.2676-1.545zm13.5342 16.532.3565-.41 1.9938 1.004 15.1055-17.588-1.3072-1.822.3565-.409 14.6961 12.623-4.2385 4.938-.8186-.687c-.1057-.581-.1057-1.188 0-1.835.0924-.555.2772-1.175.5413-1.835.2641-.687.713-1.387 1.3468-2.113l-5.9286-5.097-7.4339 8.649 3.1822 2.733c.3829-.304.779-.581 1.2016-.805.4225-.225.8186-.41 1.1751-.542.4226-.158.8187-.264 1.2148-.343l.8187.713-5.3081 6.179-.8186-.713c.0264-.396.0792-.805.1584-1.254.0792-.383.1981-.792.3433-1.228.1585-.436.3565-.871.6206-1.32l-3.1822-2.734-7.3018 8.517 6.4568 5.559c.6206-.713 1.2411-1.268 1.8749-1.637.647-.37 1.228-.647 1.7694-.832.6074-.198 1.2148-.291 1.7957-.264l.8187.713-4.2385 4.938zm21.8395 14.392c.4622-.819 1.0828-1.347 1.8486-1.571.7658-.238 1.5053-.145 2.2051.251.1584.092.3037.198.4225.29.132.106.2509.198.3697.291.1189.092.2377.198.3565.317l-2.5748 4.502c.3169.079.6866.079 1.1092.013.4225-.066.8979-.29 1.4656-.699.5678-.383 1.2148-.991 1.9278-1.809.7262-.819 1.5317-1.928 2.4164-3.328l8.0941-12.676-1.8486-1.875.2641-.462 16.1882 9.256-.2773.476-2.1523-.608-11.5007 20.07 1.5977 1.585-.2641.475-8.9524-5.123.2641-.475 2.1787.567 11.58-20.228-5.9683-3.42-8.2657 12.993c-1.0168 1.571-1.9542 2.812-2.8257 3.723-.8847.925-1.6901 1.585-2.4296 2.02-.7394.423-1.426.621-2.073.608-.6338-.013-1.2016-.172-1.7033-.462-.9375-.528-1.5317-1.255-1.7826-2.139-.2509-.885-.1452-1.743.3301-2.562zm27.7154 18.407.1716-.515 2.2315.171 7.2887-21.998-1.9014-1.201.1716-.515 9.7975 3.235-.1717.515-2.2315-.159-2.8389 8.583 2.2315.739c1.9674.661 3.5783 1.374 4.8327 2.153 1.2544.792 2.1919 1.624 2.8389 2.522.6206.897.9771 1.861 1.0431 2.878s-.0792 2.086-.4489 3.195c-.3697 1.123-.8979 2.073-1.5449 2.839-.6734.779-1.5185 1.334-2.5616 1.69-1.0431.331-2.3107.449-3.7764.331-1.4788-.132-3.1953-.515-5.1627-1.162zm8.0149 1.703 2.2314.739c1.3733.449 2.6937.304 3.9613-.435 1.2544-.74 2.2447-2.192 2.9577-4.331.713-2.166.7922-3.909.2112-5.256-.5677-1.346-1.5448-2.244-2.9181-2.693l-2.2315-.753zm13.6662 5.48.1716-.515 2.2051.158 7.2753-21.998-1.848-1.188.171-.515 9.718 3.222-.158.515-2.205-.159-7.289 21.998 1.862 1.188-.172.515zm18.605 4.621.079-.541 2.218-.225 3.248-22.962-2.073-.832.079-.541 19.173 2.72-.911 6.444-1.057-.146c-.396-.435-.726-.937-.99-1.531-.211-.528-.396-1.136-.541-1.849-.132-.713-.132-1.545 0-2.509l-7.738-1.096-1.598 11.303 4.146.581c.159-.462.357-.911.595-1.32.224-.423.462-.792.699-1.096.265-.357.542-.674.832-.938l1.07.146-1.149 8.067-1.069-.145c-.185-.357-.357-.726-.529-1.149-.145-.369-.264-.766-.383-1.215-.105-.462-.171-.937-.184-1.452l-4.16-.581-1.558 11.105 8.424 1.201c.132-.937.37-1.729.713-2.39.331-.66.674-1.214 1.03-1.65.41-.502.872-.898 1.374-1.189l1.069.146-.911 6.456zm47.6-9.335c-.224-2.113-.145-4.014.238-5.704.383-1.704 1.017-3.156 1.914-4.371.885-1.215 1.994-2.192 3.328-2.905 1.334-.726 2.839-1.175 4.516-1.347.845-.092 1.637-.039 2.376.132.74.185 1.374.383 1.902.621.634.277 1.201.607 1.703.99.159-.33.33-.634.542-.911.198-.277.396-.502.567-.686.225-.212.449-.41.674-.595l.898-.092.713 6.84-1.44.158c-.462-1.122-1.043-2.113-1.729-2.984-.595-.753-1.347-1.413-2.245-1.981-.911-.567-1.967-.792-3.182-.66-.713.066-1.4.343-2.06.806-.647.475-1.202 1.201-1.637 2.205-.449 1.016-.74 2.31-.898 3.921-.159 1.624-.119 3.592.119 5.903.25 2.363.62 4.304 1.122 5.823.488 1.518 1.083 2.72 1.782 3.617.7.885 1.479 1.479 2.338 1.796.871.304 1.769.423 2.693.317.858-.092 1.677-.356 2.43-.819.752-.462 1.399-1.029 1.967-1.729.568-.713.99-1.492 1.281-2.337.277-.859.37-1.743.277-2.654l.898-.093c.106 1.03 0 2.034-.317 3.011-.33.99-.832 1.875-1.505 2.654-.66.792-1.479 1.439-2.443 1.98-.964.515-2.033.845-3.222.964-1.901.198-3.631.093-5.202-.33-1.558-.436-2.931-1.149-4.106-2.139-1.176-1.017-2.126-2.297-2.866-3.869-.726-1.584-1.201-3.42-1.426-5.532zm27.253 6.839c-.237-.911-.171-1.716.212-2.429.383-.7.964-1.149 1.743-1.36.184-.053.356-.079.515-.106.158-.013.316-.026.462-.053.145-.013.303-.013.462-.026l1.347 5.018c.29-.172.554-.436.805-.779.251-.344.436-.846.555-1.532.119-.674.145-1.558.079-2.641-.053-1.083-.264-2.443-.634-4.067l-3.195-14.683-2.628-.026-.145-.528 18.01-4.833.132.515-1.954 1.083 6.008 22.341h2.245l.145.528-9.969 2.681-.132-.529 1.941-1.122-6.048-22.513-6.641 1.783 3.287 15.039c.397 1.822.595 3.38.634 4.635.013 1.281-.079 2.324-.317 3.142-.211.832-.554 1.453-1.03 1.888-.462.436-.963.727-1.531.885-1.043.277-1.968.185-2.773-.264-.806-.449-1.334-1.135-1.585-2.047zm27.214-17.957c-.871-1.928-1.386-3.763-1.545-5.493-.158-1.73 0-3.314.475-4.767.476-1.439 1.242-2.72 2.338-3.842 1.082-1.122 2.416-2.047 4.027-2.773s3.208-1.122 4.753-1.188c1.558-.08 3.037.198 4.424.792 1.399.594 2.693 1.532 3.882 2.799 1.201 1.268 2.231 2.866 3.103 4.793.871 1.941 1.386 3.763 1.545 5.506.158 1.73 0 3.315-.463 4.754-.475 1.439-1.254 2.733-2.337 3.855-1.082 1.136-2.429 2.06-4.027 2.787-1.611.726-3.195 1.122-4.753 1.175-1.572.066-3.037-.198-4.437-.793-1.4-.607-2.694-1.531-3.882-2.799-1.188-1.267-2.218-2.865-3.103-4.806zm5.783-2.601c.978 2.178 1.955 3.935 2.905 5.268.951 1.321 1.862 2.324 2.734 2.984.884.674 1.69 1.057 2.456 1.149.765.092 1.426.013 1.993-.238.581-.264 1.083-.713 1.506-1.346.435-.634.686-1.493.765-2.588.066-1.096-.079-2.443-.435-4.028-.37-1.597-1.043-3.486-2.021-5.677-.99-2.179-1.954-3.922-2.918-5.256-.95-1.333-1.861-2.324-2.733-2.997-.871-.66-1.677-1.043-2.443-1.136-.752-.092-1.426 0-1.993.251-.568.264-1.07.7-1.506 1.334-.435.634-.686 1.492-.766 2.588-.079 1.096.066 2.443.436 4.027.357 1.598 1.03 3.486 2.02 5.665zm28.534.224-.316-.436 1.478-1.69-13.336-18.948-2.099.793-.317-.436 8.437-5.942.317.449-1.452 1.69 6.443 9.177 6.378-4.476-6.457-9.177-2.073.779-.304-.449 8.372-5.889.317.436-1.426 1.69 13.336 18.948 2.046-.792.317.448-8.384 5.89-.304-.436 1.439-1.664-6.364-9.045-6.364 4.476 6.364 9.045 2.073-.818.317.449zm26.778-19.397-.409-.356 1.03-1.981-17.39-15.303-1.848 1.267-.41-.356 6.814-7.751.409.357-1.03 1.993 6.8 5.982 1.545-1.77c1.373-1.558 2.667-2.759 3.869-3.617 1.214-.846 2.35-1.387 3.433-1.625 1.069-.224 2.086-.171 3.063.159.951.343 1.875.898 2.76 1.677.884.779 1.558 1.624 2.007 2.522.462.924.647 1.928.554 3.024-.092 1.095-.488 2.297-1.175 3.604-.686 1.307-1.716 2.733-3.09 4.292zm4.701-6.707 1.558-1.77c.951-1.082 1.334-2.35 1.149-3.816-.185-1.439-1.136-2.918-2.839-4.41-1.703-1.505-3.288-2.258-4.754-2.258-1.452.014-2.667.555-3.617 1.638l-1.559 1.769zm10.392-10.445-.41-.356 1.004-1.954-17.403-15.304-1.822 1.241-.41-.356 6.774-7.698.396.356-.99 1.968 17.403 15.303 1.809-1.254.409.356zm-259.4084 60.579 3.1293-5.136 2.9973 1.822-3.1425 5.136.9507.581 3.6575-6.008-4.8723-2.97-3.6707 5.994zm6.2983 3.684 5.9286-2.575-2.5616 4.503.9639.541 3.4727-6.113-.8319-.476-5.9154 2.575 2.5484-4.476-.9507-.555-3.4859 6.114zm6.8661 3.776 1.3336-2.574 1.7034.884c.647.33 1.2411.423 1.7957.264.5546-.158.9639-.501 1.2412-1.043.2773-.541.3169-1.069.1188-1.597-.198-.529-.6206-.964-1.2676-1.294l-2.6936-1.387-3.2086 6.246zm2.7597-5.334 1.6241.832c.7394.383 1.0035.937.6998 1.532-.3169.594-.9243.713-1.6637.33l-1.6241-.832zm4.3045 7.117c-.1981-.66-.132-1.32.1981-1.994.3169-.66.8054-1.122 1.4392-1.36.647-.237 1.2808-.211 1.9014.093.6206.303 1.0431.792 1.2412 1.452.2112.647.1452 1.307-.1717 1.981-.3301.66-.8186 1.122-1.4656 1.36-.647.237-1.2808.198-1.9014-.106s-1.0299-.779-1.2412-1.426zm3.5519 2.548c.9243-.33 1.6109-.95 2.073-1.875.449-.937.5282-1.861.2113-2.786-.3037-.924-.9111-1.624-1.8354-2.073-.9375-.462-1.8485-.515-2.7728-.185-.9111.331-1.5977.951-2.0599 1.875-.4489.938-.5281 1.862-.2244 2.787.3037.924.9243 1.61 1.8485 2.073.9243.449 1.8486.515 2.7597.184zm1.9938 2.113 3.948-1.954-1.1751 3.024 1.0299.396 1.1619-3.011 1.6373 4.08 1.3469.528-1.8222-4.647 3.9612-2.06-1.2808-.502-3.5519 1.849 1.0828-2.8-1.03-.396-1.0827 2.799-1.3732-3.75-1.2676-.488 1.5185 4.186-4.4498 2.218zm9.8899 3.803 1.1355-3.182 1.9806 4.291 1.4261.515-2.2711-4.872 4.146-1.928-1.3336-.475-3.6839 1.729.9639-2.693-1.0299-.383-2.3768 6.628zm6.8661.7c-.2773-.634-.2905-1.294-.0396-1.994.2508-.7.6734-1.202 1.294-1.505.6074-.317 1.2412-.357 1.8882-.132.6602.237 1.1223.673 1.3996 1.307.2773.62.2905 1.281.0396 1.98-.2509.7-.6866 1.202-1.294 1.519-.6074.304-1.2412.343-1.9014.119-.647-.238-1.1091-.674-1.3864-1.294zm3.816 2.139c.8846-.423 1.492-1.123 1.8353-2.1.3565-.977.3169-1.901-.0924-2.786-.4093-.884-1.0827-1.505-2.0598-1.848-.9771-.357-1.9014-.304-2.7729.118-.8715.423-1.4789 1.123-1.8354 2.1-.3433.977-.3169 1.901.0793 2.786.4093.885 1.0959 1.505 2.073 1.849.9771.356 1.9014.303 2.7729-.119zm5.3608 2.773c.6866.237 1.294.25 1.809.039.5149-.198.8714-.594 1.0695-1.149.3301-.977-.0528-1.835-.8186-2.257.5677-.027 1.1223-.383 1.36-1.07.3433-1.03-.2245-1.901-1.4129-2.311l-3.0105-1.03-2.2711 6.655zm-1.1884-3.816 2.0335.699c.8186.278 1.1751.806.9507 1.466-.2245.673-.8583.898-1.6637.621l-2.0335-.687zm.8979-2.641 1.7958.607c.6998.238 1.0035.674.8054 1.241-.1848.555-.6998.727-1.3864.489l-1.7958-.621zm4.4102 7.698 1.1884-1.479 3.2218.898.2508 1.888 1.1488.33-1.0431-7.645-1.03-.291-4.8723 5.982zm3.8688-4.807.4357 3.183-2.4824-.687zm3.6575 6.814 2.654-2.509 1.6113.33-.581 2.905 1.082.224 1.374-6.892-3.143-.634c-1.4128-.277-2.4427.33-2.6672 1.505-.1981.964.2245 1.796 1.1488 2.219l-2.7993 2.588zm2.4428-3.539c-.7659-.158-1.162-.621-1.03-1.254.1189-.634.6603-.925 1.4395-.779l2.007.409-.396 2.02zm13.8245 4.278c.343.079.674.013.964-.185.317-.185.502-.462.581-.805.079-.357.013-.687-.185-.99-.198-.304-.475-.502-.819-.568-.356-.079-.686-.013-.977.185-.303.198-.501.475-.567.818-.08.344-.014.687.171.977.198.304.476.489.832.568zm10.893 4.133c.793.106 1.453-.026 1.941-.383.515-.356.806-.871.898-1.545.08-.66-.079-1.241-.488-1.703-.41-.475-1.017-.766-1.796-.858l-1.862-.225.185-1.479 3.829.476.119-1.017-4.925-.607-.858 6.985zm-1.426-3.71 1.757.211c.963.119 1.478.647 1.386 1.439s-.713 1.162-1.69 1.043l-1.756-.211zm6.206 4.436c.819.106 1.558-.356 2.192-1.373l3.248-5.176-1.175-.145-2.178 3.578-1.598-4.04-1.228-.146 2.113 5.282c-.278.423-.515.713-.713.832-.212.132-.449.172-.727.132-.29-.026-.541-.119-.779-.264l-.132 1.043c.225.132.542.224.977.277zm4.226.357c.105.039.237.066.435.079.872.053 1.466-.251 1.849-1.03.383-.792.581-1.782.713-3.354l.132-1.492 2.509.172-.41 5.995 1.11.079.462-7.012-4.661-.317-.198 2.404c-.119 1.28-.225 2.046-.462 2.68-.212.634-.555.885-1.044.858-.145-.013-.264-.026-.369-.066zm9.639-.977c-.476-.502-.7-1.123-.713-1.862 0-.739.224-1.36.686-1.862.476-.502 1.057-.766 1.743-.766.7 0 1.281.238 1.756.74.476.488.727 1.109.727 1.848 0 .753-.225 1.374-.7 1.875-.462.502-1.043.753-1.743.766-.687 0-1.268-.251-1.756-.739zm4.331.7c.673-.7 1.016-1.572 1.003-2.602-.013-1.043-.356-1.901-1.043-2.588-.687-.699-1.545-1.043-2.575-1.03-1.043 0-1.888.357-2.561 1.07-.674.7-1.004 1.571-1.004 2.601.013 1.03.357 1.888 1.043 2.588.687.687 1.532 1.03 2.575 1.03 1.03-.013 1.888-.37 2.562-1.069zm7.711.858-.053-7.025h-1.096l.013 3.024c-.488.224-1.03.356-1.624.356-1.096.014-1.598-.356-1.611-1.399l-.013-1.954-1.109.013.026 2.165c0 1.492.859 2.232 2.535 2.219.634-.014 1.242-.119 1.809-.331l.027 2.945zm2.852-.066-.04-3.235 3.658-.066.053 3.248 1.096-.013-.106-7.038-1.096.026.04 2.773-3.671.053-.04-2.773-1.109.013.119 7.038zm7.038-.185.673-1.783 3.327-.145.846 1.717 1.188-.066-3.394-6.919-1.069.053-2.747 7.196zm2.165-5.77 1.413 2.891-2.562.106zm5.612 5.4 1.796-3.182 1.65-.172.304 2.958 1.096-.119-.727-6.985-3.195.33c-1.439.159-2.231 1.03-2.099 2.232.092.964.739 1.637 1.756 1.769l-1.902 3.301zm1.307-4.106c-.792.079-1.307-.251-1.373-.898-.066-.634.356-1.083 1.149-1.162l2.033-.211.224 2.059zm11.567-.172c.343-.066.634-.251.832-.541.211-.291.277-.621.224-.964-.066-.357-.251-.647-.554-.845-.291-.212-.621-.278-.964-.225-.357.066-.647.251-.845.555-.198.29-.278.62-.212.977.066.343.251.634.542.832.29.198.62.277.977.211zm10.008.898-.528-3.327 3.803 2.812 1.479-.238-4.318-3.182 2.707-3.684-1.4.225-2.403 3.287-.449-2.838-1.082.171 1.096 6.946zm6.18-2.799c-.568-.37-.951-.925-1.122-1.638-.185-.726-.106-1.386.237-1.98.33-.594.832-.977 1.506-1.149.673-.158 1.307-.053 1.875.317.581.356.963.911 1.148 1.624.172.726.093 1.386-.251 1.994-.33.581-.845.964-1.518 1.135-.66.172-1.294.066-1.875-.303zm4.371-.317c.501-.858.62-1.77.369-2.773-.251-1.004-.792-1.769-1.611-2.271-.831-.515-1.756-.66-2.759-.409-1.004.25-1.743.805-2.232 1.65-.488.832-.607 1.743-.369 2.76.25 1.003.792 1.756 1.61 2.271.832.515 1.743.647 2.747.396 1.003-.251 1.756-.792 2.245-1.624zm3.736 0-.805-3.13 3.552-.911.805 3.143 1.07-.277-1.743-6.814-1.07.278.687 2.68-3.552.911-.687-2.68-1.069.277 1.743 6.8zm7.104-.145-.462-1.44 5.084-1.597.448 1.439.991-.317-.753-2.403-.964.304-1.809-5.731-4.436 1.386.29.938c.396 1.228.621 2.245.687 3.01.053.779 0 1.479-.198 2.113l-.634.211.753 2.403zm.04-2.654c.158-.661.185-1.374.079-2.179-.106-.792-.33-1.756-.687-2.879l2.351-.739 1.505 4.767zm7.605-1.334 2.153-6.114 1.558 4.939 1.043-.33-2.113-6.708-.911.29-2.139 6.088-1.558-4.926-1.043.331 2.112 6.707zm3.579-7.698 2.152-.872 2.245 5.586 1.016-.41-2.244-5.585 2.165-.871-.383-.938-5.334 2.152zm13.428 1.017-.383-.938-3.723 1.532-.845-2.06 2.931-1.202-.383-.937-2.931 1.202-.674-1.625 3.605-1.478-.383-.938-4.635 1.901 2.681 6.497zm2.245-.898-1.215-2.641 1.73-.805c.673-.304 1.109-.713 1.32-1.242.225-.528.198-1.082-.053-1.637-.251-.541-.66-.898-1.188-1.056-.541-.185-1.136-.119-1.809.198l-2.733 1.267 2.944 6.378zm-2.522-5.467 1.65-.766c.766-.343 1.36-.211 1.651.397.277.607-.013 1.162-.766 1.518l-1.664.766zm10.735 1.809c.726-.33 1.267-.792 1.637-1.373l-.462-1.017c-.317.621-.832 1.096-1.558 1.426-.687.317-1.347.37-2.007.132-.66-.25-1.149-.713-1.466-1.399-.317-.687-.356-1.347-.119-1.994.238-.66.7-1.149 1.374-1.452.62-.291 1.267-.397 1.954-.304l-.476-1.004c-.633-.053-1.267.066-1.927.37-.964.449-1.625 1.122-1.968 2.047-.356.911-.304 1.861.132 2.812.436.964 1.123 1.611 2.06 1.941.924.317 1.875.264 2.826-.185zm3.921-2.258-1.611-2.971 4.529 1.374 1.321-.713-5.15-1.545 1.321-4.384-1.242.687-1.148 3.895-1.387-2.522-.964.528 3.367 6.18zm5.493-3.037-.211-1.888 2.892-1.65 1.531 1.148 1.03-.594-6.166-4.621-.924.528.818 7.658zm-.7-6.126 2.575 1.928-2.231 1.28zm7.461 2.271.264-3.644 1.413-.859 1.545 2.535.937-.567-3.658-5.995-2.733 1.664c-1.241.752-1.571 1.888-.95 2.918.515.832 1.373 1.162 2.35.832l-.304 3.816zm-.581-4.265c-.687.409-1.281.33-1.624-.225-.33-.541-.132-1.122.541-1.544l1.756-1.057 1.07 1.756zm24.956-211.079c-1.03-1.0563-2.363-1.7165-3.803-1.9278-1.822-3.0237-4.766-5.308-8.16-6.2983 0 0-.33-.1056-.911-.2113.145-.3697.225-.779.225-1.2015 0-1.8486-1.492-3.3407-3.341-3.3407-1.835 0-3.341 1.4921-3.341 3.3407 0 .4225.08.8186.225 1.2015-.502.0925-.779.1717-.779.1717-3.446.9771-6.444 3.2746-8.292 6.3379-1.44.2113-2.773.8715-3.79 1.9278-1.202 1.228-1.862 2.8653-1.862 4.5818 0 3.618 2.945 6.5625 6.563 6.5625 1.492 0 2.905-.4886 4.04-1.3865.99.8847 2.271 1.3865 3.631 1.3865s2.628-.4886 3.605-1.3601c.977.8715 2.258 1.3601 3.605 1.3601 1.373 0 2.654-.5018 3.631-1.3865 1.149.8979 2.561 1.3865 4.04 1.3865 3.618 0 6.576-2.9445 6.576-6.5625 0-1.7165-.66-3.3538-1.862-4.5818zm-245.9522 91.755c-19.1063-12.2-35.1492-19.502-24.8369-41.804 1.8486-4.001 3.7236-6.734 4.8459-10.7745.9639-3.4595 1.03-8.9788.9903-13.785-6.3643 2.0598-11.6063 3.4726-15.9637 3.8688-6.29832.5809-10.02187-1.1092-11.395097-5.1892-1.082734-3.235.607388-7.698 4.647837-12.2534l.59418-.6734c11.32908 4.0272 14.94698 2.1918 3.64433-3.4331l1.54485-1.1355c1.1224-.8319 2.2975-1.6241 3.5255-2.3504l.5546-.3301c13.7718 6.8529 23.2524 6.3248 5.176-2.6672l2.6144-.9111c1.6901-.5942 3.4595-1.1091 5.242-1.5052l.4093-.0793c12.1874 6.0607 21.6547 6.4304 7.3547-1.5845l6.9718.9111c7.0113.9243 12.1081 3.7368 13.3229 7.3415 1.36 4.0801-.581 7.6848-5.9551 11.0254-3.7499 2.3239-8.8203 4.3705-15.1979 6.5888.4886 4.9648 1.0696 9.9559 1.2148 14.9338.2113 7.1835-7.5659 26.9755 3.1822 25.3785 3.5651-.528 15.0922-11.448 21.932-13.653 1.558-.502 3.1293-.885 4.7138-1.149 3.4331-.568 6.919-.528 10.3784.304 4.8195 1.175 8.4242 5.453 13.1381 6.985 5.757 1.848 17.522-.41 20.928 6.166 1.532 2.944.885 6.734 0 9.929-.963 3.552-2.72 7.091-5.36 9.653-4.424 4.317-9.8243 7.183-14.921 10.668 1.6505 1.057 5.4004.529 12.201-2.376 7.183-3.09 12.741-11.91 15.937-19.225 18.763 7.183 26.104 11.223 32.152 17.706-18.486 22.21-11.805 44.617-9.864 78.221-25.814-3.776-49.4225-17.508-63.1019-32.706-11.9365-13.244-12.1346-30.264-30.6203-42.095zm17.3898-26.197c.3565.172.7526.278 1.1751.278 1.4789 0 2.6805-1.202 2.6805-2.694 0-1.479-1.2016-2.681-2.6805-2.681-.3301 0-.647.067-.9507.172-1.0167.383-1.7429 1.36-1.7429 2.509 0 1.069.6206 1.981 1.5185 2.416zm219.8874-52.8424c-1.135.5941-2.403.911-3.71.911-1.268 0-2.496-.2905-3.605-.8582-1.109.5677-2.337.8582-3.605.8582-1.307 0-2.575-.3169-3.697-.911-1.228.5941-2.588.911-3.974.911-.594 0-1.189-.0528-1.743-.1716.409 2.6936.185 5.5589 1.254 8.0545.581 1.3468 1.941 2.7992 3.407 2.7992h5.321c-.475 4.6083-.99 9.2297-1.122 13.8511-.198 7.1832 7.579 26.9762-3.169 25.3782-3.565-.528-15.093-11.448-21.932-13.653-1.954-.621-3.922-1.07-5.916-1.32-3.05-.37-6.126-.251-9.176.488-4.82 1.175-8.425 5.453-13.152 6.972-5.744 1.862-17.508-.409-20.928 6.179-1.519 2.932-.872 6.735 0 9.917.977 3.552 2.733 7.09 5.374 9.665 4.423 4.305 9.824 7.17 14.92 10.656-1.65 1.069-5.413.541-12.213-2.377-7.183-3.077-12.729-11.897-15.924-19.212-56.25 21.51-49.238 40.55-45.251 96.337 2.773.291 5.586.449 8.438.449h.158c34.964-.026 63.472-13.798 80.532-33.802 11.025-12.927 9.758-30.475 27.557-41.857 19.106-12.214 35.149-19.503 24.823-41.804-1.848-4.001-3.723-6.748-4.832-10.775-1.057-3.7896-1.03-10.0219-.978-15.0923 1.4 0 2.826.2641 4.199 0 2.139-.4225 3.169-1.3336 3.394-2.7728l1.267-8.0809c-.567.1188-1.148.1716-1.756.1716-1.373 0-2.733-.3169-3.961-.911zm-40.972 47.9834c.079-.013.158-.013.251-.013 1.479 0 2.68 1.202 2.68 2.68 0 3.552-5.361 3.552-5.361 0 0-1.399 1.057-2.548 2.43-2.667z"/><path d="m147.863 190.772-.014.331h6.286c-2.113 0-4.199-.119-6.272-.331zm-7.474-180.6841v-.21125l.845-.21127v-9.031584l-.845-.211266v-.211265h7.553v2.535185h-.423c-.171-.13204-.33-.3169-.462-.52817-.119-.19806-.211-.42253-.303-.68661-.093-.26408-.146-.594181-.146-.963895h-3.05v4.436565h1.637c.04-.18485.093-.36971.159-.54136.066-.17166.132-.3301.211-.46215.079-.14524.172-.27728.264-.39612h.423v3.16898h-.423c-.092-.11884-.185-.26408-.264-.40933-.079-.13204-.145-.29049-.211-.44893-.066-.17166-.119-.35651-.159-.55458h-1.637v4.37055h3.328c0-.35651.039-.68661.145-.95069.092-.27729.198-.50175.304-.69982.132-.21126.29-.39612.462-.52816h.422v2.53517zm8.887.0792v-2.69359h.554c.145.46214.343.87147.594 1.24118.119.15845.251.3169.383.46214.145.14525.304.27729.489.39613.185.10563.396.19806.62.26408.225.07922.476.11883.74.11883.541 0 .964-.17165 1.294-.48855.317-.3169.475-.75263.475-1.28079 0-.36972-.132-.68662-.37-.9507-.25-.27728-.554-.52816-.924-.75263-.37-.23767-.779-.47535-1.215-.71302-.435-.23767-.832-.50175-1.201-.80545-.37-.30369-.674-.647-.925-1.05632-.25-.39613-.382-.87147-.382-1.43925 0-.3433.079-.6602.224-.95069.132-.3037.357-.567777.634-.792246.29-.224469.647-.396122 1.083-.528163.435-.1320406.937-.198061 1.518-.198061.343 0 .647.0528163.924.145245.278.105632.515.211265.727.316898.224.13204.435.290489.62.448938.079-.118836.159-.224469.251-.330102.079-.092428.172-.171653.238-.237673.092-.079224.185-.145245.29-.198061h.343v2.680425h-.554c-.132-.44894-.317-.85826-.555-1.22798-.198-.31689-.462-.59418-.792-.858262-.33-.250877-.739-.382918-1.201-.382918-.185 0-.357.039612-.515.105633-.159.079224-.304.184857-.423.316897-.119.145245-.211.30369-.29.50176-.08.18485-.119.39612-.119.62059 0 .40932.132.75263.383 1.04312.25.27728.554.55457.924.79224.37.25088.766.48855 1.215.72623.435.23767.832.48855 1.201.77904.37.29049.674.62059.911.9771.251.36971.383.81865.383 1.32041 0 .36971-.092.72622-.237 1.05632-.172.34331-.41.6338-.727.88468-.317.25087-.726.44893-1.214.59417-.489.1585-1.057.2245-1.704.2245-.422 0-.779-.0396-1.096-.1321-.303-.1056-.567-.21123-.779-.31686-.251-.13204-.475-.29049-.66-.46214-.079.13204-.158.23767-.251.3433-.092.09243-.171.17166-.251.23768-.092.06602-.185.13202-.277.19802zm8.252-7.42065v-2.535185h8.253v2.535185h-.423c-.172-.13204-.33-.3169-.462-.52817-.106-.19806-.211-.42253-.304-.68661-.092-.26408-.145-.594181-.145-.963895h-1.637v9.097605l.858.21127v.21125h-4.027v-.21125l.845-.21127v-9.097605h-1.624c0 .369714-.053.699815-.146.963895-.105.26408-.211.48855-.316.68661-.133.21127-.291.39613-.449.52817zm8.107 6.43038c0-.27728.106-.51496.33-.72622.238-.21127.502-.3169.806-.3169.29 0 .554.10563.779.3169.224.21126.343.44894.343.72622 0 .29049-.119.52817-.343.73943-.225.21124-.489.31694-.779.31694-.304 0-.568-.1057-.792-.31694-.238-.21126-.344-.44894-.344-.73943zm-39.137 63.18147 4.807-4.3441h2.852v17.5614l1.822.5281v.3962h-8.028v-.3962l1.848-.5281v-14.4981l-2.772 1.9542zm11.211 1.3336c0-1.8486.581-3.3274 1.729-4.4233 1.149-1.096 2.826-1.6506 5.005-1.6506 1.056 0 2.02.1849 2.892.5546.884.3697 1.624.9507 2.257 1.7297.634.7791 1.123 1.7826 1.466 2.9974.343 1.2147.515 2.6672.515 4.3573 0 1.6109-.185 3.0238-.555 4.2253-.369 1.2148-.884 2.2183-1.544 3.0238-.674.8054-1.492 1.3996-2.456 1.7957-.977.3961-2.047.5942-3.235.5942-.819 0-1.558-.1056-2.205-.3169s-1.176-.4754-1.611-.8055c-.436-.3301-.753-.6866-.991-1.0959-.224-.3961-.343-.8054-.343-1.228 0-.5942.185-1.0695.541-1.426.37-.3565.845-.5414 1.44-.5414.145 0 .264.0132.383.0264.118.0132.224.0396.343.0528.105.0132.211.0265.33.0529v4.2253c.158.066.33.132.502.198.343.1321.7.1981 1.082.1981.608 0 1.136-.1056 1.598-.3301s.872-.647 1.202-1.2808c.33-.6206.594-1.4789.766-2.5748.171-1.1091.264-2.522.264-4.2649-.198.2905-.436.5678-.74.7922-.237.1981-.554.3829-.937.5414-.37.1716-.819.2509-1.347.2509-.99 0-1.875-.1453-2.654-.4226-.792-.2772-1.453-.6734-1.994-1.1751-.555-.5018-.964-1.096-1.254-1.7958-.304-.6998-.449-1.4524-.449-2.2843zm4.489-.2773c0 .9903.079 1.8354.225 2.5088.158.6734.343 1.228.567 1.6373.238.4093.489.713.766.8847.291.1716.568.2641.832.2641.33 0 .647-.0793.938-.2377.277-.1585.528-.4093.739-.7526s.383-.7923.502-1.3469c.132-.5545.185-1.2279.185-2.0202 0-1.2148-.066-2.2183-.225-3.0237-.145-.8055-.343-1.4393-.581-1.9146-.238-.4754-.502-.8055-.805-.9903-.291-.1849-.594-.2773-.898-.2773-.225 0-.476.0924-.74.2641-.264.1716-.501.4753-.726.8847-.211.4093-.396.9639-.554 1.6373-.146.6734-.225 1.5052-.225 2.4823zm11.884.2773c0-1.8486.568-3.3274 1.73-4.4233 1.148-1.096 2.812-1.6506 4.991-1.6506 1.069 0 2.033.1849 2.905.5546.871.3697 1.624.9507 2.257 1.7297.634.7791 1.123 1.7826 1.466 2.9974.343 1.2147.515 2.6672.515 4.3573 0 1.6109-.185 3.0238-.555 4.2253-.369 1.2148-.897 2.2183-1.558 3.0238-.673.8054-1.492 1.3996-2.456 1.7957-.977.3961-2.046.5942-3.221.5942-.832 0-1.572-.1056-2.205-.3169-.647-.2113-1.189-.4754-1.625-.8055-.422-.3301-.752-.6866-.977-1.0959-.237-.3961-.343-.8054-.343-1.228 0-.5942.172-1.0695.541-1.426.357-.3565.832-.5414 1.426-.5414.146 0 .265.0132.383.0264.119.0132.238.0396.344.0528.105.0132.224.0265.343.0529v4.2253c.145.066.317.132.502.198.33.1321.686.1981 1.082.1981.595 0 1.136-.1056 1.598-.3301s.858-.647 1.189-1.2808c.343-.6206.594-1.4789.765-2.5748.185-1.1091.264-2.522.264-4.2649-.198.2905-.435.5678-.726.7922-.251.1981-.568.3829-.937.5414-.383.1716-.832.2509-1.36.2509-.991 0-1.875-.1453-2.654-.4226-.779-.2772-1.453-.6734-1.994-1.1751-.541-.5018-.964-1.096-1.254-1.7958-.291-.6998-.436-1.4524-.436-2.2843zm4.489-.2773c0 .9903.066 1.8354.225 2.5088.145.6734.33 1.228.567 1.6373.225.4093.476.713.766.8847.278.1716.555.2641.819.2641.343 0 .647-.0793.937-.2377.291-.1585.542-.4093.74-.7526.211-.3433.383-.7923.515-1.3469.119-.5545.185-1.2279.185-2.0202 0-1.2148-.08-2.2183-.225-3.0237-.158-.8055-.343-1.4393-.581-1.9146-.237-.4754-.515-.8055-.805-.9903-.304-.1849-.608-.2773-.911-.2773-.225 0-.476.0924-.74.2641-.264.1716-.502.4753-.713.8847-.224.4093-.409.9639-.554 1.6373-.159.6734-.225 1.5052-.225 2.4823zm10.682-.2508v-5.1496h12.518v1.2015c0 .8583-.119 1.6637-.344 2.4164-.237.7526-.541 1.5184-.911 2.2843-.369.7658-.752 1.5581-1.162 2.3899-.409.8319-.805 1.743-1.175 2.7333-.356.9903-.66 2.0994-.898 3.3274-.251 1.228-.369 2.6012-.369 4.1329h-4.622c0-1.4921.185-2.8257.528-3.9877.357-1.1619.806-2.205 1.347-3.1425.542-.9375 1.162-1.7958 1.836-2.5748.673-.7659 1.333-1.5185 1.967-2.2447.647-.713 1.241-1.4393 1.783-2.1787.541-.7262.95-1.5185 1.241-2.3767h-9.349c-.079.5281-.198.9903-.356 1.3864-.172.3961-.357.7262-.555.9771-.211.3301-.436.5942-.686.8055z"/><path d="m174.852 47.5611c-1.862 0-3.671-.5678-5.176-1.5977-1.519 1.0299-3.328 1.5977-5.189 1.5977-1.849 0-3.658-.5678-5.176-1.5977-1.506 1.0299-3.315 1.5977-5.176 1.5977-1.849 0-3.658-.5678-5.176-1.5977-1.506 1.0299-3.315 1.5977-5.176 1.5977-1.862 0-3.658-.5678-5.176-1.5977-1.506 1.0299-3.315 1.5977-5.176 1.5977-.515 0-1.017-.0396-1.506-.1321l.436 1.6902c.885 3.4066 4.331 6.0738 7.843 6.0738h28.204c3.512 0 6.959-2.6672 7.843-6.0738l.449-1.743c-.594.1189-1.214.1849-1.848.1849zm-36.245-4.6082c1.267 1.426 3.129 2.3239 5.176 2.3239 2.059 0 3.908-.8979 5.176-2.3239 1.28 1.426 3.129 2.3239 5.176 2.3239 2.059 0 3.908-.8979 5.176-2.3239 1.28 1.426 3.129 2.3239 5.176 2.3239 2.059 0 3.908-.8979 5.176-2.3239 1.28 1.426 3.129 2.3239 5.176 2.3239 3.829 0 6.932-3.103 6.932-6.9322 0-3.5122-2.628-6.4303-6.035-6.8661-1.861-2.1919-8.49-8.7411-21.43-8.7411-12.979 0-19.845 6.5889-21.747 8.7411-3.407.4226-6.061 3.3407-6.061 6.8661 0 3.8292 3.117 6.9322 6.933 6.9322 2.059 0 3.908-.8979 5.176-2.3239zm21.786-14.6566c.489-.4093 1.202-.3433 1.611.1453l1.862 2.2183c.396.4753.343 1.2015-.145 1.5977-.212.1848-.476.264-.726.264-.331 0-.647-.132-.872-.3961l-1.862-2.2183c-.409-.4885-.343-1.2015.132-1.6109zm-7.222.5282c0-.6206.501-1.1355 1.135-1.1355s1.136.5149 1.136 1.1355v2.9049c0 .6206-.502 1.1356-1.136 1.1356s-1.135-.515-1.135-1.1356zm-8.424 1.8354 1.861-2.2183c.41-.4886 1.123-.5546 1.611-.1453.476.4094.542 1.1224.132 1.6109l-1.848 2.2183c-.238.2641-.555.3961-.885.3961-.251 0-.515-.0792-.726-.264-.489-.3962-.542-1.1224-.145-1.5977z" fill-rule="nonzero"/></g></svg>