<svg height="36" viewBox="0 0 51 36" width="51" xmlns="http://www.w3.org/2000/svg"><path d="m50.5906169 6.03978305c-.1780677-.18261458-.4085186-.29675085-.6574677-.33328068-.3149899-.52274135-.8239526-.91765423-1.4107119-1.08885864 0 0-.0570509-.01825627-.1574949-.03652983.0250678-.06391424.0388983-.13467458.0388983-.20771695 0-.31958848-.257939-.57754475-.5775966-.57754475-.3172373 0-.5775966.25795627-.5775966.57754475 0 .07304237.0138305.14152068.0388983.20771695-.0867865.01599152-.1346746.02968373-.1346746.02968373-.5957492.16892237-1.1140475.56611729-1.4335322 1.09570474-.2489492.03652983-.4794.1506661-.6552204.33328068-.2078033.21229831-.321905.49535695-.321905.7921078 0 .62548474.5091356 1.1345339 1.1346203 1.1345339.257939 0 .5022203-.08446983.6984407-.2397.1711525.15294813.3926135.2397.6277322.2397.2351186 0 .4543322-.08446983.6232373-.23513594.1689051.15066611.3903661.23513594.6232373.23513594.2373661 0 .4588271-.08675187.6277322-.2397.1986406.15523017.4427491.2397.6984406.2397.6254848 0 1.1368678-.50904916 1.1368678-1.1345339 0-.29675085-.1141017-.57980949-.3219051-.7921078zm-42.52054978 15.86272885c-3.30312305-2.1091526-6.07664136-3.3715322-4.29383695-7.2271322.31958847-.6916983.64374102-1.1641831.83776576-1.8627102.16664034-.5980831.1780678-1.5522671.17120441-2.3831695-1.10026881.356101-2.00651288.6003478-2.7598261.6688434-1.0888621.1004268-1.73259448-.19176-1.96999982-.8971159-.18718453-.55927123.10500606-1.33084072.80352436-2.11838445l.10272264-.1164183c1.95858672.69622779 2.58405417.37892135.63003672-.59351899l.26707576-.19630678c.19404203-.14382.39719491-.28077661.60949322-.40634034l.09588-.05706813c2.38088746 1.18473864 4.01990644 1.09344.8948339-.46110915l.45198101-.15751221c.29218678-.1027261.59808305-.19174271.90624407-.26022101l.07076034-.0137095c2.10697424 1.04778204 3.7436939 1.11169628 1.27149051-.2739305l1.20529424.1575122c1.21212305.15979424 2.09326474.64602305 2.30328101 1.26920847.23511865.70537322-.10044406 1.32855865-1.02952576 1.90608611-.6482878.40175898-1.52486542.75557796-2.62743356 1.13908068.08446983.8583213.1849139 1.7211895.21001627 2.5817756.03652983 1.2418932-1.30800305 4.663561.55014305 4.3874695.61633933-.0912814 2.60916-1.9791458 3.7916339-2.3603492.2693492-.0867864.5409976-.153.8149281-.1986407.593519-.0981966 1.1961661-.0912813 1.7942319.052556.8332017.2031356 1.4563871.942722 2.2713325 1.2075763.995278.3194847 3.0292272-.0708814 3.6180611 1.0659864.2648542.5089627.153 1.164183 0 1.716539-.1664848.6140746-.4702373 1.2259017-.9266441 1.6688237-.7648271.7463288-1.6984383 1.2418068-2.5795627 1.8442983.2853407.1827356.9336285.0914542 2.1093254-.4107661 1.2418068-.5342034 2.2026814-2.0590169 2.7552102-3.3236441 3.2437729 1.2418068 4.5128949 1.9402475 5.5584813 3.0610373-3.1958847 3.8396949-2.0408644 7.7134475-1.7053017 13.5229526-4.4627593-.6528-8.5442288-3.0268068-10.909142-5.6542577-2.0635983-2.2896406-2.0978461-5.2320813-5.29367898-7.2774406zm3.00637218-4.5289729c.0616322.0297356.1301105.048061.2031529.048061.2556742 0 .4634085-.2078034.4634085-.4657424 0-.2556915-.2077343-.4634949-.4634085-.4634949-.0570681 0-.1118542.0115831-.1643583.0297356-.1757685.0662136-.3013149.2351186-.3013149.4337593 0 .1848102.1072902.342478.2625203.4176814zm38.0144319-9.13546578c-.1962204.10270881-.4154339.15749492-.6413898.15749492-.2192136 0-.4315119-.05022204-.6232373-.14836678-.1917255.09814474-.4040238.14836678-.6232373.14836678-.225956 0-.4451695-.05478611-.6391424-.15749492-.2122983.10270881-.4474169.15749492-.6870305.15749492-.1026915 0-.2055559-.00912814-.3013322-.02966645.0707085.46567323.031983.96103017.2167932 1.39247289.1004441.23283661.3355627.48392952.5890068.48392952h.9199017c-.0821187.7966891-.1711526 1.595643-.1939729 2.3945969-.0342305 1.2418414 1.3102678 4.6636821-.547861 4.3874176-.616322-.0912813-2.6092983-1.9791457-3.7916339-2.3603491-.3378102-.1073593-.6780407-.1849831-1.0227661-.2282034-.5272881-.0639661-1.0590712-.0433932-1.5863593.0843661-.8332882.2031356-1.4565255.942722-2.2737356 1.2053288-.9930305.3219051-3.0268068-.0707085-3.618061 1.0682339-.2626068.5068882-.1507526 1.1643559 0 1.7144644.168905.6140746.4724847 1.2257288.9290644 1.6708983.7646542.7442543 1.6983864 1.2395593 2.5793898 1.8422238-.2852542.1848101-.9358068.0935288-2.1114-.410939-1.2418068-.531956-2.2006068-2.0567695-2.7529627-3.3213966-9.7245763 3.7186779-8.5123322 7.0103389-7.8230543 16.6548711.4794.0503085.9657153.0776238 1.4587729.0776238h.0273153c6.0446237-.0044949 10.9731254-2.385417 13.9224813-5.8437356 1.906017-2.2348373 1.6869763-5.2685593 4.7640916-7.2362949 3.3030712-2.1115729 6.0766067-3.3717051 4.2914339-7.2271322-.3194848-.6916983-.6436373-1.1666034-.8353627-1.8627966-.1827356-.6551512-.1780678-1.7325997-.169078-2.6091773.2420339 0 .4885627.0456579.7259288 0 .3697932-.0730424.547861-.2305546.5867593-.47936546l.2190407-1.39703695c-.0980237.02053831-.1984678.02966645-.3035797.02966645-.2373661 0-.4724847-.05478611-.684783-.15749492zm-7.0832949 8.29543528c.0136576-.0022475.0273152-.0022475.0433932-.0022475.2556915 0 .463322.2078034.463322.4633221 0 .6140745-.9268169.6140745-.9268169 0 0-.2418611.1827356-.4405017.4201017-.4610746zm-20.1384305-7.82749731.8310406-.7510139h.4930577v3.03603861l.3149898.0912987v.0684956h-1.3878915v-.0684956l.3194847-.0912987v-2.50645115l-.4792271.33784474zm1.9381728.23055457c0-.31958847.1004441-.57524542.2989119-.7647061.1986407-.18947797.4885627-.28535797.8652712-.28535797.1825627 0 .3492203.03196577.4999729.09588.1528271.06391424.2807593.16435831.3901932.29903289.1096068.13469186.1941458.3081783.2534441.51819457.0592983.20999899.0890339.46110916.0890339.75329593 0 .27849458-.0319831.52275862-.0959492.73047562-.0637932.2100162-.1528271.3835027-.2669288.5227586-.116522.1392387-.257939.2419648-.4245966.3104431-.1689051.0684783-.3538881.1027261-.5592712.1027261-.1415898 0-.2693492-.0182563-.3812034-.0547861-.1118542-.0365299-.2033085-.0821878-.2785119-.139256-.0753762-.0570681-.1301796-.1187003-.1713254-.1894606-.0387254-.0684783-.0592983-.1392387-.0592983-.2122983 0-.1027261.0319831-.1848967.0935288-.2465289.0639661-.0616322.1460848-.0935979.2489492-.0935979.0250678 0 .0456407.002282.0662135.004564.0204.0022821.0387255.0068461.0592983.0091282.0181526.002282.036478.0045813.0570509.0091454v.7304756c.0273152.0114102.0570508.0228203.0867864.0342305.0592983.0228376.121017.0342478.1870577.0342478.1051118 0 .1963932-.0182563.2762644-.0570681.0798712-.0388119.1507525-.1118543.2078034-.2214265.0570508-.1072901.1026915-.2556742.1324271-.4451349.0295627-.1917427.0456407-.43600677.0456407-.73732168-.0342306.05022203-.0753763.09816203-.1279322.13695661-.0409729.03424779-.0957763.06619627-.1619899.09359796-.0639661.02966644-.1415898.04337594-.2328712.04337594-.1711525 0-.3241525-.02511967-.4588271-.07305967-.136922-.04792271-.2511966-.1164183-.3447254-.20315288-.0959492-.08675186-.1666576-.18947796-.2167932-.31046034-.052556-.12098237-.0776238-.25109288-.0776238-.39491288zm.7760645-.04794c0 .17120441.0136576.31730644.0388983.43372475.0273152.1164183.0592983.2122983.0980237.28305864.0411457.07076034.084539.12326441.1324271.15294814.0503085.02966644.0981966.04565796.1438373.04565796.0570508 0 .1118542-.01370949.1621627-.04109389.0478881-.0274017.0912814-.07076034.1277593-.13011051.036478-.05935017.0662136-.1369739.0867865-.2328539.0228203-.09586271.031983-.21228102.031983-.34925492 0-.21001627-.0114102-.38350271-.0388983-.52274135-.0250678-.13925593-.0592983-.24882814-.1004441-.33099865-.0411457-.08218779-.0867864-.13925593-.1391694-.1712044-.0503085-.03196577-.1026916-.04794-.1552475-.04794-.0388983 0-.0822915.01597423-.1279322.04565796-.0456407.02966644-.0866136.08217051-.1255119.15294814-.0364779.07076034-.068461.16664034-.0957762.28305864-.0252407.11641831-.0388983.26022102-.0388983.42914339zm2.054522.04794c0-.31958847.0981966-.57524542.2990847-.7647061.1984678-.18947797.4861424-.28535797.8628509-.28535797.1848101 0 .3514678.03196577.5022203.09588.1505797.06391424.2807593.16435831.3901932.29903289.1096068.13469186.1941458.3081783.2534441.51819457.0592983.20999899.0890339.46110916.0890339.75329593 0 .27849458-.031983.52275862-.0959491.73047562-.0637933.2100162-.1550746.3835027-.2693492.5227586-.1163492.1392387-.257939.2419648-.4245966.3104431-.1689051.0684783-.3537153.1027261-.5568509.1027261-.1438372 0-.2717695-.0182563-.3812033-.0547861-.1118543-.0365299-.205556-.0821878-.2809323-.139256-.0729559-.0570681-.1300067-.1187003-.168905-.1894606-.0409729-.0684783-.0592983-.1392387-.0592983-.2122983 0-.1027261.0297356-.1848967.0935288-.2465289.0617186-.0616322.1438373-.0935979.2465288-.0935979.0252407 0 .0458135.002282.0662135.004564.0205729.0022821.0411458.0068461.0594712.0091282.0181526.002282.0387255.0045813.0592983.0091454v.7304756c.0250678.0114102.0548034.0228203.0867865.0342305.0570508.0228376.1185966.0342478.1870576.0342478.1028644 0 .1963932-.0182563.2762644-.0570681.0798712-.0388119.1483322-.1118543.2055559-.2214265.0592983-.1072901.1026916-.2556742.1322543-.4451349.031983-.1917427.0456407-.43600677.0456407-.73732168-.0342306.05022203-.0752034.09816203-.1255119.13695661-.0433932.03424779-.0981966.06619627-.1619898.09359796-.0662136.02966644-.1438373.04337594-.2351187.04337594-.1713254 0-.3241525-.02511967-.4588271-.07305967-.1346746-.04792271-.2511966-.1164183-.3447254-.20315288-.0935288-.08675186-.1666577-.18947796-.2167932-.31046034-.0503085-.12098237-.0753763-.25109288-.0753763-.39491288zm.7760644-.04794c0 .17120441.0114102.31730644.0388983.43372475.0250678.1164183.0570508.2122983.0980237.28305864.0388983.07076034.0822916.12326441.1324271.15294814.0480611.02966644.0959492.04565796.1415899.04565796.0592983 0 .1118542-.01370949.1619898-.04109389.0503085-.0274017.0937017-.07076034.1279322-.13011051.036478-.05935017.0662136-.1369739.0890339-.2328539.0205729-.09586271.0319831-.21228102.0319831-.34925492 0-.21001627-.0138306-.38350271-.0388983-.52274135-.0273153-.13925593-.0592984-.24882814-.1004441-.33099865-.0409729-.08218779-.0890339-.13925593-.1391695-.1712044-.0525559-.03196577-.1051119-.04794-.1574949-.04794-.0388983 0-.0822915.01597423-.1279322.04565796-.0456407.02966644-.0867865.08217051-.1232644.15294814-.0387255.07076034-.0707085.16664034-.0957763.28305864-.0274881.11641831-.0388983.26022102-.0388983.42914339zm1.8467186-.04335864v-.89026983h2.1641288v.20771695c0 .14838407-.0205728.28762271-.0594711.41775051-.0409729.1301105-.0935289.26250305-.157495.39491288-.0637932.13239254-.1300067.26936644-.2008881.41316915-.0707085.14382-.1391695.3013322-.2031356.47253661-.0615457.17120441-.1141017.36294711-.1552474.57524541-.0433933.2122983-.0637933.449699-.0637933.7145014h-.7990576c0-.2579563.0319831-.4885109.0912814-.689399.0617186-.2008709.1393423-.3812034.2328712-.54327967.0937017-.16207628.2008881-.31046034.3174101-.44513492.1163492-.13240983.2304509-.26252034.3400577-.38806678.1118542-.12326441.2145457-.24882814.3082474-.37665661.0935288-.12554644.1642373-.26252034.2145458-.41088712h-1.6162678c-.0136577.09129865-.0342305.17120441-.0615458.23968271-.0297356.06847831-.0617186.12554644-.0959491.16892238-.036478.05706813-.0753763.1027261-.1185966.13925593zm.9679627-4.42622949c-.321905 0-.6346474-.09816204-.8948339-.27621255-.2626067.17805051-.5753491.27621255-.8970813.27621255-.3196576 0-.6324-.09816204-.8948339-.27621255-.2603593.17805051-.5731017.27621255-.8948339.27621255-.3196576 0-.6324-.09816204-.8948339-.27621255-.2603593.17805051-.5731017.27621255-.8948339.27621255-.3219051 0-.6324-.09816204-.8948339-.27621255-.2603593.17805051-.5731017.27621255-.8948339.27621255-.0890339 0-.1758203-.0068461-.2603593-.02283763l.0753763.29220407c.153.58893762.7487491 1.05004678 1.3559084 1.05004678h4.8759458c.6071593 0 1.2030813-.46110916 1.3559085-1.05004678l.0776237-.30133221c-.1026915.0205556-.209878.03196577-.3194848.03196577zm-6.2660847-.79667187c.2190407.24652882.5409458.40175899.8948339.40175899.3559627 0 .6756203-.15523017.8948339-.40175899.2212881.24652882.5409458.40175899.8948339.40175899.3559627 0 .6756203-.15523017.8948339-.40175899.2212881.24652882.5409458.40175899.8948339.40175899.3559627 0 .6756203-.15523017.8948339-.40175899.2212881.24652882.5409458.40175899.8948339.40175899.6619627 0 1.1984135-.53645085 1.1984135-1.19844814 0-.6071939-.4543322-1.11167898-1.0433389-1.18702068-.3217322-.37893864-1.4677627-1.51117322-3.7048475-1.51117322-2.2438271 0-3.4308305 1.13909797-3.7596508 1.51117322-.5890068.07305966-1.0478339.57754475-1.0478339 1.18702068 0 .66199729.5388711 1.19844814 1.1985864 1.19844814.3559627 0 .6756203-.15523017.8948339-.40175899zm3.7663932-2.53385288c.084539-.07076034.2078034-.05935017.2785119.02511966l.3219051.38350271c.068461.08217051.0592983.20771695-.0250678.27621255-.0366509.03194847-.0822916.04564067-.1255119.04564067-.0572237 0-.1118542-.02282033-.1507525-.0684783l-.3219051-.38350271c-.0707085-.08445254-.0592983-.20771695.0228203-.27849458zm-1.2485491.09131593c0-.10729017.0866135-.19630678.1962203-.19630678s.1963932.08901661.1963932.19630678v.50220305c0 .10729017-.0867864.19632407-.1963932.19632407s-.1962203-.0890339-.1962203-.19632407zm-1.4563526.31730644.3217322-.38350271c.0708814-.08446983.1941458-.09588.2785119-.02511966.0822915.07077763.0937017.19404204.0228203.27849458l-.3194847.38350271c-.0411458.04565797-.0959492.0684783-.153.0684783-.0433932 0-.0890339-.0136922-.1255119-.04564067-.084539-.0684956-.0937017-.19404204-.0250678-.27621255z" fill="#333e50" fill-rule="evenodd"/></svg>