<svg xmlns="http://www.w3.org/2000/svg" width="300" height="305" viewBox="0 0 300 305">
  <g fill="#FFF" fill-rule="evenodd">
    <path d="M5.74719 202.762L6.15652 202.418 7.95227 203.752 25.857 189.03 24.8931 187.009 25.3156 186.666 37.503 201.481 32.4722 205.614 31.7724 204.769C31.7724 204.188 31.8649 203.594 32.0893 202.973 32.2742 202.445 32.5515 201.864 32.9212 201.243 33.3041 200.623 33.8719 200.002 34.6113 199.395L29.7918 193.532 22.3843 199.619 23.6519 201.164C24.9591 202.762 25.9494 204.227 26.5832 205.561 27.217 206.895 27.5735 208.109 27.6528 209.192 27.7056 210.275 27.5207 211.252 27.0454 212.137 26.5832 213.021 25.923 213.814 25.0516 214.54 24.1801 215.253 23.2558 215.755 22.2919 216.045 21.3412 216.322 20.3377 216.336 19.2814 216.071 18.225 215.794 17.1159 215.213 15.9275 214.329 14.7524 213.444 13.498 212.189 12.1776 210.592L5.74719 202.762zM11.6098 208.479L12.8774 210.024C13.8017 211.133 14.99 211.714 16.4425 211.767 17.8949 211.82 19.4662 211.16 21.1431 209.786 22.8201 208.413 23.7708 207 23.982 205.561 24.2197 204.135 23.8632 202.854 22.9521 201.745L21.6845 200.2 11.6098 208.479zM25.144 225.011L25.5005 224.601 27.4943 225.605 42.5998 208.017 41.2926 206.195 41.6491 205.786 56.3452 218.409 52.1067 223.347 51.2881 222.66C51.1824 222.079 51.1824 221.472 51.2881 220.825 51.3805 220.27 51.5653 219.65 51.8294 218.99 52.0935 218.303 52.5424 217.603 53.1762 216.877L47.2476 211.78 39.8137 220.429 42.9959 223.162C43.3788 222.858 43.7749 222.581 44.1975 222.357 44.62 222.132 45.0161 221.947 45.3726 221.815 45.7952 221.657 46.1913 221.551 46.5874 221.472L47.4061 222.185 42.098 228.364 41.2794 227.651C41.3058 227.255 41.3586 226.846 41.4378 226.397 41.517 226.014 41.6359 225.605 41.7811 225.169 41.9396 224.733 42.1376 224.298 42.4017 223.849L39.2195 221.115 31.9177 229.632 38.3745 235.191C38.9951 234.478 39.6156 233.923 40.2494 233.554 40.8964 233.184 41.4774 232.907 42.0188 232.722 42.6262 232.524 43.2336 232.431 43.8145 232.458L44.6332 233.171 40.3947 238.109 25.144 225.011zM46.9835 239.403C47.4457 238.584 48.0663 238.056 48.8321 237.832 49.5979 237.594 50.3374 237.687 51.0372 238.083 51.1956 238.175 51.3409 238.281 51.4597 238.373 51.5917 238.479 51.7106 238.571 51.8294 238.664 51.9483 238.756 52.0671 238.862 52.1859 238.981L49.6111 243.483C49.928 243.562 50.2977 243.562 50.7203 243.496 51.1428 243.43 51.6182 243.206 52.1859 242.797 52.7537 242.414 53.4007 241.806 54.1137 240.988 54.8399 240.169 55.6454 239.06 56.5301 237.66L64.6242 224.984 62.7756 223.109 63.0397 222.647 79.2279 231.903 78.9506 232.379 76.7983 231.771 65.2976 251.841 66.8953 253.426 66.6312 253.901 57.6788 248.778 57.9429 248.303 60.1216 248.87 71.7016 228.642 65.7333 225.222 57.4676 238.215C56.4508 239.786 55.5134 241.027 54.6419 241.938 53.7572 242.863 52.9518 243.523 52.2123 243.958 51.4729 244.381 50.7863 244.579 50.1393 244.566 49.5055 244.553 48.9377 244.394 48.436 244.104 47.4985 243.576 46.9043 242.849 46.6534 241.965 46.4025 241.08 46.5082 240.222 46.9835 239.403zM74.6989 257.81L74.8705 257.295 77.102 257.466 84.3907 235.468 82.4893 234.267 82.6609 233.752 92.4584 236.987 92.2867 237.502 90.0552 237.343 87.2163 245.926 89.4478 246.665C91.4152 247.326 93.0261 248.039 94.2805 248.818 95.5349 249.61 96.4724 250.442 97.1194 251.34 97.74 252.237 98.0965 253.201 98.1625 254.218 98.2285 255.235 98.0833 256.304 97.7136 257.413 97.3439 258.536 96.8157 259.486 96.1687 260.252 95.4953 261.031 94.6502 261.586 93.6071 261.942 92.564 262.273 91.2964 262.391 89.8307 262.273 88.3519 262.141 86.6354 261.758 84.668 261.111L74.6989 257.81zM82.7138 259.513L84.9452 260.252C86.3185 260.701 87.6389 260.556 88.9065 259.817 90.1609 259.077 91.1512 257.625 91.8642 255.486 92.5772 253.32 92.6564 251.577 92.0754 250.23 91.5077 248.884 90.5306 247.986 89.1573 247.537L86.9258 246.784 82.7138 259.513zM96.38 264.993L96.5516 264.478 98.7567 264.636 106.032 242.638 104.184 241.45 104.355 240.935 114.073 244.157 113.915 244.672 111.71 244.513 104.421 266.511 106.283 267.699 106.111 268.214 96.38 264.993zM114.985 269.614L115.064 269.073 117.282 268.848 120.53 245.886 118.457 245.054 118.536 244.513 137.709 247.233 136.798 253.677 135.741 253.531C135.345 253.096 135.015 252.594 134.751 252 134.54 251.472 134.355 250.864 134.21 250.151 134.078 249.438 134.078 248.606 134.21 247.642L126.472 246.546 124.874 257.849 129.02 258.43C129.179 257.968 129.377 257.519 129.615 257.11 129.839 256.687 130.077 256.318 130.314 256.014 130.579 255.657 130.856 255.34 131.146 255.076L132.216 255.222 131.067 263.289 129.998 263.144C129.813 262.787 129.641 262.418 129.469 261.995 129.324 261.626 129.205 261.229 129.086 260.78 128.981 260.318 128.915 259.843 128.902 259.328L124.742 258.747 123.184 269.852 131.608 271.053C131.74 270.116 131.978 269.324 132.321 268.663 132.652 268.003 132.995 267.449 133.351 267.013 133.761 266.511 134.223 266.115 134.725 265.824L135.794 265.97 134.883 272.426 114.985 269.614zM162.585 260.279C162.361 258.166 162.44 256.265 162.823 254.575 163.206 252.871 163.84 251.419 164.737 250.204 165.622 248.989 166.731 248.012 168.065 247.299 169.399 246.573 170.904 246.124 172.581 245.952 173.426 245.86 174.218 245.913 174.957 246.084 175.697 246.269 176.331 246.467 176.859 246.705 177.493 246.982 178.06 247.312 178.562 247.695 178.721 247.365 178.892 247.061 179.104 246.784 179.302 246.507 179.5 246.282 179.671 246.098 179.896 245.886 180.12 245.688 180.345 245.503L181.243 245.411 181.956 252.251 180.516 252.409C180.054 251.287 179.473 250.296 178.787 249.425 178.192 248.672 177.44 248.012 176.542 247.444 175.631 246.877 174.575 246.652 173.36 246.784 172.647 246.85 171.96 247.127 171.3 247.59 170.653 248.065 170.098 248.791 169.663 249.795 169.214 250.811 168.923 252.105 168.765 253.716 168.606 255.34 168.646 257.308 168.884 259.619 169.134 261.982 169.504 263.923 170.006 265.442 170.494 266.96 171.089 268.162 171.788 269.059 172.488 269.944 173.267 270.538 174.126 270.855 174.997 271.159 175.895 271.278 176.819 271.172 177.677 271.08 178.496 270.816 179.249 270.353 180.001 269.891 180.648 269.324 181.216 268.624 181.784 267.911 182.206 267.132 182.497 266.287 182.774 265.428 182.867 264.544 182.774 263.633L183.672 263.54C183.778 264.57 183.672 265.574 183.355 266.551 183.025 267.541 182.523 268.426 181.85 269.205 181.19 269.997 180.371 270.644 179.407 271.185 178.443 271.7 177.374 272.03 176.185 272.149 174.284 272.347 172.554 272.242 170.983 271.819 169.425 271.383 168.052 270.67 166.877 269.68 165.701 268.663 164.751 267.383 164.011 265.811 163.285 264.227 162.81 262.391 162.585 260.279zM189.838 267.118C189.601 266.207 189.667 265.402 190.05 264.689 190.433 263.989 191.014 263.54 191.793 263.329 191.977 263.276 192.149 263.25 192.308 263.223 192.466 263.21 192.624 263.197 192.77 263.17 192.915 263.157 193.073 263.157 193.232 263.144L194.579 268.162C194.869 267.99 195.133 267.726 195.384 267.383 195.635 267.039 195.82 266.537 195.939 265.851 196.058 265.177 196.084 264.293 196.018 263.21 195.965 262.127 195.754 260.767 195.384 259.143L192.189 244.46 189.561 244.434 189.416 243.906 207.426 239.073 207.558 239.588 205.604 240.671 211.612 263.012 213.857 263.012 214.002 263.54 204.033 266.221 203.901 265.692 205.842 264.57 199.794 242.057 193.153 243.84 196.44 258.879C196.837 260.701 197.035 262.259 197.074 263.514 197.087 264.795 196.995 265.838 196.757 266.656 196.546 267.488 196.203 268.109 195.727 268.544 195.265 268.98 194.764 269.271 194.196 269.429 193.153 269.706 192.228 269.614 191.423 269.165 190.617 268.716 190.089 268.03 189.838 267.118zM217.052 249.161C216.181 247.233 215.666 245.398 215.507 243.668 215.349 241.938 215.507 240.354 215.982 238.901 216.458 237.462 217.224 236.181 218.32 235.059 219.402 233.937 220.736 233.012 222.347 232.286 223.958 231.56 225.555 231.164 227.1 231.098 228.658 231.018 230.137 231.296 231.524 231.89 232.923 232.484 234.217 233.422 235.406 234.689 236.607 235.957 237.637 237.555 238.509 239.482 239.38 241.423 239.895 243.245 240.054 244.988 240.212 246.718 240.054 248.303 239.591 249.742 239.116 251.181 238.337 252.475 237.254 253.597 236.172 254.733 234.825 255.657 233.227 256.384 231.616 257.11 230.032 257.506 228.474 257.559 226.902 257.625 225.437 257.361 224.037 256.766 222.637 256.159 221.343 255.235 220.155 253.967 218.967 252.7 217.937 251.102 217.052 249.161zM222.835 246.56C223.813 248.738 224.79 250.495 225.74 251.828 226.691 253.149 227.602 254.152 228.474 254.812 229.358 255.486 230.164 255.869 230.93 255.961 231.695 256.053 232.356 255.974 232.923 255.723 233.504 255.459 234.006 255.01 234.429 254.377 234.864 253.743 235.115 252.884 235.194 251.789 235.26 250.693 235.115 249.346 234.759 247.761 234.389 246.164 233.716 244.275 232.738 242.084 231.748 239.905 230.784 238.162 229.82 236.828 228.87 235.495 227.959 234.504 227.087 233.831 226.216 233.171 225.41 232.788 224.644 232.695 223.892 232.603 223.218 232.695 222.651 232.946 222.083 233.21 221.581 233.646 221.145 234.28 220.71 234.914 220.459 235.772 220.379 236.868 220.3 237.964 220.445 239.311 220.815 240.895 221.172 242.493 221.845 244.381 222.835 246.56zM251.369 246.784L251.053 246.348 252.531 244.658 239.195 225.71 237.096 226.503 236.779 226.067 245.216 220.125 245.533 220.574 244.081 222.264 250.524 231.441 256.902 226.965 250.445 217.788 248.372 218.567 248.068 218.118 256.44 212.229 256.757 212.665 255.331 214.355 268.667 233.303 270.713 232.511 271.03 232.959 262.646 238.849 262.342 238.413 263.781 236.749 257.417 227.704 251.053 232.18 257.417 241.225 259.49 240.407 259.807 240.856 251.369 246.784zM278.147 227.387L277.738 227.031 278.768 225.05 261.378 209.747 259.53 211.014 259.12 210.658 265.934 202.907 266.343 203.264 265.313 205.257 272.113 211.239 273.658 209.469C275.031 207.911 276.325 206.71 277.527 205.852 278.741 205.006 279.877 204.465 280.96 204.227 282.029 204.003 283.046 204.056 284.023 204.386 284.974 204.729 285.898 205.284 286.783 206.063 287.667 206.842 288.341 207.687 288.79 208.585 289.252 209.509 289.437 210.513 289.344 211.609 289.252 212.704 288.856 213.906 288.169 215.213 287.483 216.52 286.453 217.946 285.079 219.505L278.147 227.387zM282.848 220.68L284.406 218.91C285.357 217.828 285.74 216.56 285.555 215.094 285.37 213.655 284.419 212.176 282.716 210.684 281.013 209.179 279.428 208.426 277.962 208.426 276.51 208.44 275.295 208.981 274.345 210.064L272.786 211.833 282.848 220.68zM293.24 210.235L292.83 209.879 293.834 207.925 276.431 192.621 274.609 193.862 274.199 193.506 280.973 185.808 281.369 186.164 280.379 188.132 297.782 203.435 299.591 202.181 300 202.537 293.24 210.235zM33.8316 270.814L36.9609 265.678 39.9582 267.5 36.8157 272.636 37.7664 273.217 41.4239 267.209 36.5516 264.239 32.8809 270.233 33.8316 270.814zM40.1299 274.498L46.0585 271.923 43.4969 276.426 44.4608 276.967 47.9335 270.854 47.1016 270.378 41.1862 272.953 43.7346 268.477 42.7839 267.922 39.298 274.036 40.1299 274.498zM46.996 278.274L48.3296 275.7 50.033 276.584C50.68 276.914 51.2741 277.007 51.8287 276.848 52.3833 276.69 52.7926 276.347 53.0699 275.805 53.3472 275.264 53.3868 274.736 53.1887 274.208 52.9907 273.679 52.5681 273.244 51.9211 272.914L49.2275 271.527 46.0189 277.773 46.996 278.274zM49.7557 272.94L51.3798 273.772C52.1192 274.155 52.3833 274.709 52.0796 275.304 51.7627 275.898 51.1553 276.017 50.4159 275.634L48.7918 274.802 49.7557 272.94zM54.0602 280.057C53.8621 279.397 53.9282 278.737 54.2583 278.063 54.5752 277.403 55.0637 276.941 55.6975 276.703 56.3445 276.466 56.9783 276.492 57.5989 276.796 58.2195 277.099 58.642 277.588 58.8401 278.248 59.0513 278.895 58.9853 279.555 58.6684 280.229 58.3383 280.889 57.8498 281.351 57.2028 281.589 56.5558 281.826 55.922 281.787 55.3014 281.483 54.6808 281.179 54.2715 280.704 54.0602 280.057zM57.6121 282.605C58.5364 282.275 59.223 281.655 59.6851 280.73 60.1341 279.793 60.2133 278.869 59.8964 277.944 59.5927 277.02 58.9853 276.32 58.061 275.871 57.1235 275.409 56.2125 275.356 55.2882 275.686 54.3771 276.017 53.6905 276.637 53.2283 277.561 52.7794 278.499 52.7002 279.423 53.0039 280.348 53.3076 281.272 53.9282 281.958 54.8524 282.421 55.7767 282.87 56.701 282.936 57.6121 282.605zM59.6059 284.718L63.5539 282.764 62.3788 285.788 63.4087 286.184 64.5706 283.173 66.2079 287.253 67.5548 287.781 65.7326 283.134 69.6938 281.074 68.413 280.572 64.8611 282.421 65.9439 279.621 64.9139 279.225 63.8312 282.024 62.458 278.274 61.1904 277.786 62.7089 281.972 58.2591 284.19 59.6059 284.718zM69.4958 288.521L70.6313 285.339 72.6119 289.63 74.038 290.145 71.7669 285.273 75.9129 283.345 74.5793 282.87 70.8954 284.599 71.8593 281.906 70.8294 281.523 68.4526 288.151 69.4958 288.521zM76.3619 289.221C76.0846 288.587 76.0714 287.927 76.3223 287.227 76.5731 286.527 76.9957 286.025 77.6163 285.722 78.2237 285.405 78.8575 285.365 79.5045 285.59 80.1647 285.827 80.6268 286.263 80.9041 286.897 81.1814 287.517 81.1946 288.178 80.9437 288.877 80.6928 289.577 80.2571 290.079 79.6497 290.396 79.0423 290.7 78.4085 290.739 77.7483 290.515 77.1013 290.277 76.6392 289.841 76.3619 289.221zM80.1779 291.36C81.0625 290.937 81.6699 290.237 82.0132 289.26 82.3697 288.283 82.3301 287.359 81.9208 286.474 81.5115 285.59 80.8381 284.969 79.861 284.626 78.8839 284.269 77.9596 284.322 77.0881 284.744 76.2166 285.167 75.6092 285.867 75.2527 286.844 74.9094 287.821 74.9358 288.745 75.332 289.63 75.7413 290.515 76.4279 291.135 77.405 291.479 78.3821 291.835 79.3064 291.782 80.1779 291.36zM85.5387 294.133C86.2253 294.37 86.8327 294.383 87.3477 294.172 87.8626 293.974 88.2191 293.578 88.4172 293.023 88.7473 292.046 88.3644 291.188 87.5986 290.766 88.1663 290.739 88.7209 290.383 88.9586 289.696 89.3019 288.666 88.7341 287.795 87.5457 287.385L84.5352 286.355 82.2641 293.01 85.5387 294.133zM84.3503 290.317L86.3838 291.016C87.2024 291.294 87.5589 291.822 87.3345 292.482 87.11 293.155 86.4762 293.38 85.6708 293.103L83.6373 292.416 84.3503 290.317zM85.2482 287.676L87.044 288.283C87.7438 288.521 88.0475 288.957 87.8494 289.524 87.6646 290.079 87.1496 290.251 86.463 290.013L84.6672 289.392 85.2482 287.676zM89.6584 295.374L90.8468 293.895 94.0686 294.793 94.3194 296.681 95.4682 297.011 94.4251 289.366 93.3951 289.075 88.5228 295.057 89.6584 295.374zM93.5272 290.567L93.9629 293.75 91.4805 293.063 93.5272 290.567zM97.1847 297.381L99.8387 294.872 101.45 295.202 100.869 298.107 101.951 298.331 103.325 291.439 100.182 290.805C98.7692 290.528 97.7393 291.135 97.5148 292.31 97.3167 293.274 97.7393 294.106 98.6636 294.529L95.8643 297.117 97.1847 297.381zM99.6275 293.842C98.8616 293.684 98.4655 293.221 98.5975 292.588 98.7164 291.954 99.2578 291.663 100.037 291.809L102.044 292.218 101.648 294.238 99.6275 293.842zM113.452 298.12C113.795 298.199 114.126 298.133 114.416 297.935 114.733 297.75 114.918 297.473 114.997 297.13 115.076 296.773 115.01 296.443 114.812 296.14 114.614 295.836 114.337 295.638 113.993 295.572 113.637 295.493 113.307 295.559 113.016 295.757 112.713 295.955 112.515 296.232 112.449 296.575 112.369 296.919 112.435 297.262 112.62 297.552 112.818 297.856 113.096 298.041 113.452 298.12zM124.345 302.253C125.138 302.359 125.798 302.227 126.286 301.87 126.801 301.514 127.092 300.999 127.184 300.325 127.264 299.665 127.105 299.084 126.696 298.622 126.286 298.147 125.679 297.856 124.9 297.764L123.038 297.539 123.223 296.06 127.052 296.536 127.171 295.519 122.246 294.912 121.388 301.897 124.345 302.253zM122.919 298.543L124.676 298.754C125.639 298.873 126.154 299.401 126.062 300.193 125.97 300.985 125.349 301.355 124.372 301.236L122.616 301.025 122.919 298.543zM129.125 302.979C129.944 303.085 130.683 302.623 131.317 301.606L134.565 296.43 133.39 296.285 131.212 299.863 129.614 295.823 128.386 295.677 130.499 300.959C130.221 301.382 129.984 301.672 129.786 301.791 129.574 301.923 129.337 301.963 129.059 301.923 128.769 301.897 128.518 301.804 128.28 301.659L128.148 302.702C128.373 302.834 128.69 302.926 129.125 302.979zM133.351 303.336C133.456 303.375 133.588 303.402 133.786 303.415 134.658 303.468 135.252 303.164 135.635 302.385 136.018 301.593 136.216 300.603 136.348 299.031L136.48 297.539 138.989 297.711 138.579 303.706 139.689 303.785 140.151 296.773 135.49 296.456 135.292 298.86C135.173 300.14 135.067 300.906 134.83 301.54 134.618 302.174 134.275 302.425 133.786 302.398 133.641 302.385 133.522 302.372 133.417 302.332L133.351 303.336zM142.99 302.359C142.514 301.857 142.29 301.236 142.277 300.497 142.277 299.758 142.501 299.137 142.963 298.635 143.439 298.133 144.02 297.869 144.706 297.869 145.406 297.869 145.987 298.107 146.462 298.609 146.938 299.097 147.189 299.718 147.189 300.457 147.189 301.21 146.964 301.831 146.489 302.332 146.027 302.834 145.446 303.085 144.746 303.098 144.059 303.098 143.478 302.847 142.99 302.359zM147.321 303.059C147.994 302.359 148.337 301.487 148.324 300.457 148.311 299.414 147.968 298.556 147.281 297.869 146.594 297.17 145.736 296.826 144.706 296.839 143.663 296.839 142.818 297.196 142.145 297.909 141.471 298.609 141.141 299.48 141.141 300.51 141.154 301.54 141.498 302.398 142.184 303.098 142.871 303.785 143.716 304.128 144.759 304.128 145.789 304.115 146.647 303.758 147.321 303.059zM155.032 303.917L154.979 296.892 153.883 296.892 153.896 299.916C153.408 300.14 152.866 300.272 152.272 300.272 151.176 300.286 150.674 299.916 150.661 298.873L150.648 296.919 149.539 296.932 149.565 299.097C149.565 300.589 150.424 301.329 152.1 301.316 152.734 301.302 153.342 301.197 153.909 300.985L153.936 303.93 155.032 303.917zM157.884 303.851L157.844 300.616 161.502 300.55 161.555 303.798 162.651 303.785 162.545 296.747 161.449 296.773 161.489 299.546 157.818 299.599 157.778 296.826 156.669 296.839 156.788 303.877 157.884 303.851zM164.922 303.666L165.595 301.883 168.922 301.738 169.768 303.455 170.956 303.389 167.562 296.47 166.493 296.523 163.746 303.719 164.922 303.666zM167.087 297.896L168.5 300.787 165.938 300.893 167.087 297.896zM172.699 303.296L174.495 300.114 176.145 299.942 176.449 302.9 177.545 302.781 176.818 295.796 173.623 296.126C172.184 296.285 171.392 297.156 171.524 298.358 171.616 299.322 172.263 299.995 173.28 300.127L171.378 303.428 172.699 303.296zM174.006 299.19C173.214 299.269 172.699 298.939 172.633 298.292 172.567 297.658 172.989 297.209 173.782 297.13L175.815 296.919 176.039 298.978 174.006 299.19zM185.573 299.018C185.916 298.952 186.207 298.767 186.405 298.477 186.616 298.186 186.682 297.856 186.629 297.513 186.563 297.156 186.378 296.866 186.075 296.668 185.784 296.456 185.454 296.39 185.111 296.443 184.754 296.509 184.464 296.694 184.266 296.998 184.068 297.288 183.988 297.618 184.054 297.975 184.12 298.318 184.305 298.609 184.596 298.807 184.886 299.005 185.216 299.084 185.573 299.018zM195.581 299.916L195.053 296.589 198.856 299.401 200.335 299.163 196.017 295.981 198.724 292.297 197.324 292.522 194.921 295.809 194.472 292.971 193.39 293.142 194.486 300.088 195.581 299.916zM201.761 297.117C201.193 296.747 200.81 296.192 200.639 295.479 200.454 294.753 200.533 294.093 200.876 293.499 201.206 292.905 201.708 292.522 202.382 292.35 203.055 292.192 203.689 292.297 204.257 292.667 204.838 293.023 205.22 293.578 205.405 294.291 205.577 295.017 205.498 295.677 205.154 296.285 204.824 296.866 204.309 297.249 203.636 297.42 202.976 297.592 202.342 297.486 201.761 297.117zM206.132 296.8C206.633 295.942 206.752 295.03 206.501 294.027 206.25 293.023 205.709 292.258 204.89 291.756 204.059 291.241 203.134 291.096 202.131 291.347 201.127 291.597 200.388 292.152 199.899 292.997 199.411 293.829 199.292 294.74 199.53 295.757 199.78 296.76 200.322 297.513 201.14 298.028 201.972 298.543 202.883 298.675 203.887 298.424 204.89 298.173 205.643 297.632 206.132 296.8zM209.868 296.8L209.063 293.67 212.615 292.759 213.42 295.902 214.49 295.625 212.747 288.811 211.677 289.089 212.364 291.769 208.812 292.68 208.125 290 207.056 290.277 208.799 297.077 209.868 296.8zM216.972 296.655L216.51 295.215 221.594 293.618 222.042 295.057 223.033 294.74 222.28 292.337 221.316 292.641 219.507 286.91 215.071 288.296 215.361 289.234C215.757 290.462 215.982 291.479 216.048 292.244 216.101 293.023 216.048 293.723 215.85 294.357L215.216 294.568 215.969 296.971 216.972 296.655zM217.012 294.001C217.17 293.34 217.197 292.627 217.091 291.822 216.985 291.03 216.761 290.066 216.404 288.943L218.755 288.204 220.26 292.971 217.012 294.001zM224.617 292.667L226.77 286.553 228.328 291.492 229.371 291.162 227.258 284.454 226.347 284.744 224.208 290.832 222.65 285.906 221.607 286.237 223.719 292.944 224.617 292.667zM228.196 284.969L230.348 284.097 232.593 289.683 233.609 289.273 231.365 283.688 233.53 282.817 233.147 281.879 227.813 284.031 228.196 284.969zM241.624 285.986L241.241 285.048 237.518 286.58 236.673 284.52 239.604 283.318 239.221 282.381 236.29 283.583 235.616 281.958 239.221 280.48 238.838 279.542 234.203 281.443 236.884 287.94 241.624 285.986zM243.869 285.088L242.654 282.447 244.384 281.642C245.057 281.338 245.493 280.929 245.704 280.4 245.929 279.872 245.902 279.318 245.651 278.763 245.4 278.222 244.991 277.865 244.463 277.707 243.922 277.522 243.327 277.588 242.654 277.905L239.921 279.172 242.865 285.55 243.869 285.088zM241.347 279.621L242.997 278.855C243.763 278.512 244.357 278.644 244.648 279.252 244.925 279.859 244.635 280.414 243.882 280.77L242.218 281.536 241.347 279.621zM252.082 281.43C252.808 281.1 253.349 280.638 253.719 280.057L253.257 279.04C252.94 279.661 252.425 280.136 251.699 280.466 251.012 280.783 250.352 280.836 249.692 280.598 249.032 280.348 248.543 279.885 248.226 279.199 247.909 278.512 247.87 277.852 248.107 277.205 248.345 276.545 248.807 276.056 249.481 275.753 250.101 275.462 250.748 275.356 251.435 275.449L250.959 274.445C250.326 274.392 249.692 274.511 249.032 274.815 248.068 275.264 247.407 275.937 247.064 276.862 246.708 277.773 246.76 278.723 247.196 279.674 247.632 280.638 248.319 281.285 249.256 281.615 250.18 281.932 251.131 281.879 252.082 281.43zM256.003 279.172L254.392 276.201 258.921 277.575 260.242 276.862 255.092 275.317 256.413 270.933 255.171 271.62 254.023 275.515 252.636 272.993 251.672 273.521 255.039 279.701 256.003 279.172zM261.496 276.135L261.285 274.247 264.177 272.597 265.708 273.745 266.738 273.151 260.572 268.53 259.648 269.058 260.466 276.716 261.496 276.135zM260.796 270.009L263.371 271.937 261.14 273.217 260.796 270.009zM268.257 272.28L268.521 268.636 269.934 267.777 271.479 270.312 272.416 269.745 268.758 263.75 266.025 265.414C264.784 266.166 264.454 267.302 265.075 268.332 265.59 269.164 266.448 269.494 267.425 269.164L267.121 272.98 268.257 272.28zM267.676 268.015C266.989 268.424 266.395 268.345 266.052 267.79 265.722 267.249 265.92 266.668 266.593 266.246L268.349 265.189 269.419 266.945 267.676 268.015zM292.632 56.936C291.602 55.8797 290.269 55.2195 288.829 55.0082 287.007 51.9845 284.063 49.7002 280.669 48.7099 280.669 48.7099 280.339 48.6043 279.758 48.4986 279.903 48.1289 279.983 47.7196 279.983 47.2971 279.983 45.4485 278.491 43.9564 276.642 43.9564 274.807 43.9564 273.301 45.4485 273.301 47.2971 273.301 47.7196 273.381 48.1157 273.526 48.4986 273.024 48.5911 272.747 48.6703 272.747 48.6703 269.301 49.6474 266.303 51.9449 264.455 55.0082 263.015 55.2195 261.682 55.8797 260.665 56.936 259.463 58.164 258.803 59.8013 258.803 61.5178 258.803 65.1358 261.748 68.0803 265.366 68.0803 266.858 68.0803 268.271 67.5917 269.406 66.6938 270.396 67.5785 271.677 68.0803 273.037 68.0803 274.397 68.0803 275.665 67.5917 276.642 66.7202 277.619 67.5917 278.9 68.0803 280.247 68.0803 281.62 68.0803 282.901 67.5785 283.878 66.6938 285.027 67.5917 286.439 68.0803 287.918 68.0803 291.536 68.0803 294.494 65.1358 294.494 61.5178 294.494 59.8013 293.834 58.164 292.632 56.936zM46.6798 148.691C27.5735 136.491 11.5306 129.189 21.8429 106.887 23.6915 102.886 25.5665 100.153 26.6888 96.1125 27.6527 92.653 27.7188 87.1337 27.6791 82.3275 21.3148 84.3873 16.0728 85.8001 11.7154 86.1963 5.41708 86.7772 1.69353 85.0871.320303 81.0071-.762431 77.7721.927691 73.3091 4.96814 68.7537L5.56232 68.0803C16.8914 72.1075 20.5093 70.2721 9.20665 64.6472L10.7515 63.5117C11.8739 62.6798 13.049 61.8876 14.277 61.1613L14.8316 60.8312C28.6034 67.6841 38.084 67.156 20.0076 58.164L22.622 57.2529C24.3121 56.6587 26.0815 56.1438 27.864 55.7477L28.2733 55.6684C40.4607 61.7291 49.928 62.0988 35.628 54.0839L42.5998 54.995C49.6111 55.9193 54.7079 58.7318 55.9227 62.3365 57.2827 66.4166 55.3417 70.0213 49.9676 73.3619 46.2177 75.6858 41.1473 77.7324 34.7697 79.9507 35.2583 84.9155 35.8393 89.9066 35.9845 94.8845 36.1958 102.068 28.4186 121.86 39.1667 120.263 42.7318 119.735 54.2589 108.815 61.0987 106.61 62.6567 106.108 64.228 105.725 65.8125 105.461 69.2456 104.893 72.7315 104.933 76.1909 105.765 81.0104 106.94 84.6151 111.218 89.329 112.75 95.086 114.598 106.851 112.34 110.257 118.916 111.789 121.86 111.142 125.65 110.257 128.845 109.294 132.397 107.537 135.936 104.897 138.498 100.473 142.815 95.0727 145.681 89.976 149.166 91.6265 150.223 95.3764 149.695 102.177 146.79 109.36 143.7 114.918 134.88 118.114 127.565 136.877 134.748 144.218 138.788 150.266 145.271 131.78 167.481 138.461 189.888 140.402 223.492 114.588 219.716 90.9795 205.984 77.3001 190.786 65.3636 177.542 65.1655 160.522 46.6798 148.691zM64.0696 122.494C64.4261 122.666 64.8222 122.772 65.2447 122.772 66.7236 122.772 67.9252 121.57 67.9252 120.078 67.9252 118.599 66.7236 117.397 65.2447 117.397 64.9146 117.397 64.5977 117.464 64.294 117.569 63.2773 117.952 62.5511 118.929 62.5511 120.078 62.5511 121.147 63.1717 122.059 64.0696 122.494zM283.957 69.6516C282.822 70.2457 281.554 70.5626 280.247 70.5626 278.979 70.5626 277.751 70.2721 276.642 69.7044 275.533 70.2721 274.305 70.5626 273.037 70.5626 271.73 70.5626 270.462 70.2457 269.34 69.6516 268.112 70.2457 266.752 70.5626 265.366 70.5626 264.772 70.5626 264.177 70.5098 263.623 70.391 264.032 73.0846 263.808 75.9499 264.877 78.4455 265.458 79.7923 266.818 81.2447 268.284 81.2447L273.605 81.2447C273.13 85.853 272.615 90.4744 272.483 95.0958 272.285 102.279 280.062 122.072 269.314 120.474 265.749 119.946 254.221 109.026 247.382 106.821 245.428 106.2 243.46 105.751 241.466 105.501 238.416 105.131 235.34 105.25 232.29 105.989 227.47 107.164 223.865 111.442 219.138 112.961 213.394 114.823 201.63 112.552 198.21 119.14 196.691 122.072 197.338 125.875 198.21 129.057 199.187 132.609 200.943 136.147 203.584 138.722 208.007 143.027 213.408 145.892 218.504 149.378 216.854 150.447 213.091 149.919 206.291 147.001 199.108 143.924 193.562 135.104 190.367 127.789 134.117 149.299 141.129 168.339 145.116 224.126 147.889 224.417 150.702 224.575 153.554 224.575L153.712 224.575C188.676 224.549 217.184 210.777 234.244 190.773 245.269 177.846 244.002 160.298 261.801 148.916 280.907 136.702 296.95 129.413 286.624 107.112 284.776 103.111 282.901 100.364 281.792 96.337 280.735 92.5474 280.762 86.3151 280.814 81.2447 282.214 81.2447 283.64 81.5088 285.013 81.2447 287.152 80.8222 288.182 79.9111 288.407 78.4719L289.674 70.391C289.107 70.5098 288.526 70.5626 287.918 70.5626 286.545 70.5626 285.185 70.2457 283.957 69.6516zM242.985 117.635C243.064 117.622 243.143 117.622 243.236 117.622 244.715 117.622 245.916 118.824 245.916 120.302 245.916 123.854 240.555 123.854 240.555 120.302 240.555 118.903 241.612 117.754 242.985 117.635z"/>
    <path d="M147.863 190.772L147.849 191.103 154.135 191.103C152.022 191.103 149.936 190.984 147.863 190.772zM140.389 10.0879L140.389 9.87665 141.234 9.66538 141.234.633796 140.389.42253 140.389.211265 147.942.211265 147.942 2.74645 147.519 2.74645C147.348 2.61441 147.189 2.42955 147.057 2.21828 146.938 2.02022 146.846 1.79575 146.754 1.53167 146.661 1.26759 146.608.937489 146.608.567775L143.558.567775 143.558 5.00434 145.195 5.00434C145.235 4.81949 145.288 4.63463 145.354 4.46298 145.42 4.29132 145.486 4.13288 145.565 4.00083 145.644 3.85559 145.737 3.72355 145.829 3.60471L146.252 3.60471 146.252 6.77369 145.829 6.77369C145.737 6.65485 145.644 6.50961 145.565 6.36436 145.486 6.23232 145.42 6.07387 145.354 5.91543 145.288 5.74377 145.235 5.55892 145.195 5.36085L143.558 5.36085 143.558 9.7314 146.886 9.7314C146.886 9.37489 146.925 9.04479 147.031 8.78071 147.123 8.50342 147.229 8.27896 147.335 8.08089 147.467 7.86963 147.625 7.68477 147.797 7.55273L148.219 7.55273 148.219 10.0879 140.389 10.0879zM149.276 10.1671L149.276 7.47351 149.83 7.47351C149.975 7.93565 150.173 8.34498 150.424 8.71469 150.543 8.87314 150.675 9.03159 150.807 9.17683 150.952 9.32208 151.111 9.45412 151.296 9.57296 151.481 9.67859 151.692 9.77102 151.916 9.83704 152.141 9.91626 152.392 9.95587 152.656 9.95587 153.197 9.95587 153.62 9.78422 153.95 9.46732 154.267 9.15042 154.425 8.71469 154.425 8.18653 154.425 7.81681 154.293 7.49991 154.055 7.23583 153.805 6.95855 153.501 6.70767 153.131 6.4832 152.761 6.24553 152.352 6.00785 151.916 5.77018 151.481 5.53251 151.084 5.26843 150.715 4.96473 150.345 4.66104 150.041 4.31773 149.79 3.90841 149.54 3.51228 149.408 3.03694 149.408 2.46916 149.408 2.12586 149.487 1.80896 149.632 1.51847 149.764 1.21477 149.989.950693 150.266.726224 150.556.501755 150.913.330102 151.349.198061 151.784.0660204 152.286 0 152.867 0 153.21 0 153.514.0528163 153.791.145245 154.069.250877 154.306.35651 154.518.462143 154.742.594183 154.953.752632 155.138.911081 155.217.792245 155.297.686612 155.389.580979 155.468.488551 155.561.409326 155.627.343306 155.719.264082 155.812.198061 155.917.145245L156.26.145245 156.26 2.82567 155.706 2.82567C155.574 2.37673 155.389 1.96741 155.151 1.59769 154.953 1.2808 154.689 1.00351 154.359.739428 154.029.488551 153.62.35651 153.158.35651 152.973.35651 152.801.396122 152.643.462143 152.484.541367 152.339.647 152.22.77904 152.101.924285 152.009 1.08273 151.93 1.2808 151.85 1.46565 151.811 1.67692 151.811 1.90139 151.811 2.31071 151.943 2.65402 152.194 2.94451 152.444 3.22179 152.748 3.49908 153.118 3.73675 153.488 3.98763 153.884 4.2253 154.333 4.46298 154.768 4.70065 155.165 4.95153 155.534 5.24202 155.904 5.53251 156.208 5.86261 156.445 6.21912 156.696 6.58883 156.828 7.03777 156.828 7.53953 156.828 7.90924 156.736 8.26575 156.591 8.59585 156.419 8.93916 156.181 9.22965 155.864 9.48053 155.547 9.7314 155.138 9.92946 154.65 10.0747 154.161 10.2332 153.593 10.2992 152.946 10.2992 152.524 10.2992 152.167 10.2596 151.85 10.1671 151.547 10.0615 151.283 9.95587 151.071 9.85024 150.82 9.7182 150.596 9.55975 150.411 9.3881 150.332 9.52014 150.253 9.62577 150.16 9.7314 150.068 9.82383 149.989 9.90306 149.909 9.96908 149.817 10.0351 149.724 10.1011 149.632 10.1671L149.276 10.1671zM157.528 2.74645L157.528.211265 165.781.211265 165.781 2.74645 165.358 2.74645C165.186 2.61441 165.028 2.42955 164.896 2.21828 164.79 2.02022 164.685 1.79575 164.592 1.53167 164.5 1.26759 164.447.937489 164.447.567775L162.81.567775 162.81 9.66538 163.668 9.87665 163.668 10.0879 159.641 10.0879 159.641 9.87665 160.486 9.66538 160.486.567775 158.862.567775C158.862.937489 158.809 1.26759 158.716 1.53167 158.611 1.79575 158.505 2.02022 158.4 2.21828 158.267 2.42955 158.109 2.61441 157.951 2.74645L157.528 2.74645zM165.635 9.17683C165.635 8.89955 165.741 8.66187 165.965 8.45061 166.203 8.23934 166.467 8.13371 166.771 8.13371 167.061 8.13371 167.325 8.23934 167.55 8.45061 167.774 8.66187 167.893 8.89955 167.893 9.17683 167.893 9.46732 167.774 9.705 167.55 9.91626 167.325 10.1275 167.061 10.2332 166.771 10.2332 166.467 10.2332 166.203 10.1275 165.979 9.91626 165.741 9.705 165.635 9.46732 165.635 9.17683zM126.498 72.3583L131.305 68.0142 134.157 68.0142 134.157 85.5756 135.979 86.1037 135.979 86.4999 127.951 86.4999 127.951 86.1037 129.799 85.5756 129.799 71.0775 127.027 73.0317 126.498 72.3583zM137.709 73.6919C137.709 71.8433 138.29 70.3645 139.438 69.2686 140.587 68.1726 142.264 67.618 144.443 67.618 145.499 67.618 146.463 67.8029 147.335 68.1726 148.219 68.5423 148.959 69.1233 149.592 69.9023 150.226 70.6814 150.715 71.6849 151.058 72.8997 151.401 74.1144 151.573 75.5669 151.573 77.257 151.573 78.8679 151.388 80.2808 151.018 81.4823 150.649 82.6971 150.134 83.7006 149.474 84.5061 148.8 85.3115 147.982 85.9057 147.018 86.3018 146.041 86.6979 144.971 86.896 143.783 86.896 142.964 86.896 142.225 86.7904 141.578 86.5791 140.931 86.3678 140.402 86.1037 139.967 85.7736 139.531 85.4435 139.214 85.087 138.976 84.6777 138.752 84.2816 138.633 83.8723 138.633 83.4497 138.633 82.8555 138.818 82.3802 139.174 82.0237 139.544 81.6672 140.019 81.4823 140.614 81.4823 140.759 81.4823 140.878 81.4955 140.997 81.5087 141.115 81.5219 141.221 81.5483 141.34 81.5615 141.445 81.5747 141.551 81.588 141.67 81.6144L141.67 85.8397C141.828 85.9057 142 85.9717 142.172 86.0377 142.515 86.1698 142.872 86.2358 143.254 86.2358 143.862 86.2358 144.39 86.1302 144.852 85.9057 145.314 85.6812 145.724 85.2587 146.054 84.6249 146.384 84.0043 146.648 83.146 146.82 82.0501 146.991 80.941 147.084 79.5281 147.084 77.7852 146.886 78.0757 146.648 78.353 146.344 78.5774 146.107 78.7755 145.79 78.9603 145.407 79.1188 145.037 79.2904 144.588 79.3697 144.06 79.3697 143.07 79.3697 142.185 79.2244 141.406 78.9471 140.614 78.6699 139.953 78.2737 139.412 77.772 138.857 77.2702 138.448 76.676 138.158 75.9762 137.854 75.2764 137.709 74.5238 137.709 73.6919zM142.198 73.4146C142.198 74.4049 142.277 75.25 142.423 75.9234 142.581 76.5968 142.766 77.1514 142.99 77.5607 143.228 77.97 143.479 78.2737 143.756 78.4454 144.047 78.617 144.324 78.7095 144.588 78.7095 144.918 78.7095 145.235 78.6302 145.526 78.4718 145.803 78.3133 146.054 78.0625 146.265 77.7192 146.476 77.3759 146.648 76.9269 146.767 76.3723 146.899 75.8178 146.952 75.1444 146.952 74.3521 146.952 73.1373 146.886 72.1338 146.727 71.3284 146.582 70.5229 146.384 69.8891 146.146 69.4138 145.908 68.9384 145.644 68.6083 145.341 68.4235 145.05 68.2386 144.747 68.1462 144.443 68.1462 144.218 68.1462 143.967 68.2386 143.703 68.4103 143.439 68.5819 143.202 68.8856 142.977 69.295 142.766 69.7043 142.581 70.2589 142.423 70.9323 142.277 71.6057 142.198 72.4375 142.198 73.4146zM154.082 73.6919C154.082 71.8433 154.65 70.3645 155.812 69.2686 156.96 68.1726 158.624 67.618 160.803 67.618 161.872 67.618 162.836 67.8029 163.708 68.1726 164.579 68.5423 165.332 69.1233 165.965 69.9023 166.599 70.6814 167.088 71.6849 167.431 72.8997 167.774 74.1144 167.946 75.5669 167.946 77.257 167.946 78.8679 167.761 80.2808 167.391 81.4823 167.022 82.6971 166.494 83.7006 165.833 84.5061 165.16 85.3115 164.341 85.9057 163.377 86.3018 162.4 86.6979 161.331 86.896 160.156 86.896 159.324 86.896 158.584 86.7904 157.951 86.5791 157.304 86.3678 156.762 86.1037 156.326 85.7736 155.904 85.4435 155.574 85.087 155.349 84.6777 155.112 84.2816 155.006 83.8723 155.006 83.4497 155.006 82.8555 155.178 82.3802 155.547 82.0237 155.904 81.6672 156.379 81.4823 156.973 81.4823 157.119 81.4823 157.238 81.4955 157.356 81.5087 157.475 81.5219 157.594 81.5483 157.7 81.5615 157.805 81.5747 157.924 81.588 158.043 81.6144L158.043 85.8397C158.188 85.9057 158.36 85.9717 158.545 86.0377 158.875 86.1698 159.231 86.2358 159.627 86.2358 160.222 86.2358 160.763 86.1302 161.225 85.9057 161.687 85.6812 162.083 85.2587 162.414 84.6249 162.757 84.0043 163.008 83.146 163.179 82.0501 163.364 80.941 163.443 79.5281 163.443 77.7852 163.245 78.0757 163.008 78.353 162.717 78.5774 162.466 78.7755 162.149 78.9603 161.78 79.1188 161.397 79.2904 160.948 79.3697 160.42 79.3697 159.429 79.3697 158.545 79.2244 157.766 78.9471 156.987 78.6699 156.313 78.2737 155.772 77.772 155.231 77.2702 154.808 76.676 154.518 75.9762 154.227 75.2764 154.082 74.5238 154.082 73.6919zM158.571 73.4146C158.571 74.4049 158.637 75.25 158.796 75.9234 158.941 76.5968 159.126 77.1514 159.363 77.5607 159.588 77.97 159.839 78.2737 160.129 78.4454 160.407 78.617 160.684 78.7095 160.948 78.7095 161.291 78.7095 161.595 78.6302 161.885 78.4718 162.176 78.3133 162.427 78.0625 162.625 77.7192 162.836 77.3759 163.008 76.9269 163.14 76.3723 163.259 75.8178 163.325 75.1444 163.325 74.3521 163.325 73.1373 163.245 72.1338 163.1 71.3284 162.942 70.5229 162.757 69.8891 162.519 69.4138 162.282 68.9384 162.004 68.6083 161.714 68.4235 161.41 68.2386 161.106 68.1462 160.803 68.1462 160.578 68.1462 160.327 68.2386 160.063 68.4103 159.799 68.5819 159.561 68.8856 159.35 69.295 159.126 69.7043 158.941 70.2589 158.796 70.9323 158.637 71.6057 158.571 72.4375 158.571 73.4146zM169.253 73.1638L169.253 68.0142 181.771 68.0142 181.771 69.2157C181.771 70.074 181.652 70.8794 181.427 71.6321 181.19 72.3847 180.886 73.1505 180.516 73.9164 180.147 74.6822 179.764 75.4745 179.354 76.3063 178.945 77.1382 178.549 78.0493 178.179 79.0396 177.823 80.0299 177.519 81.139 177.281 82.367 177.03 83.595 176.912 84.9682 176.912 86.4999L172.29 86.4999C172.29 85.0078 172.475 83.6742 172.818 82.5122 173.175 81.3503 173.624 80.3072 174.165 79.3697 174.707 78.4322 175.327 77.5739 176.001 76.7949 176.674 76.029 177.334 75.2764 177.968 74.5502 178.615 73.8372 179.209 73.1109 179.751 72.3715 180.292 71.6453 180.701 70.853 180.992 69.9948L171.643 69.9948C171.564 70.5229 171.445 70.9851 171.287 71.3812 171.115 71.7773 170.93 72.1074 170.732 72.3583 170.521 72.6884 170.296 72.9525 170.046 73.1638L169.253 73.1638z"/>
    <path fill-rule="nonzero" d="M174.852,47.5611 C172.99,47.5611 171.181,46.9933 169.676,45.9634 C168.157,46.9933 166.348,47.5611 164.487,47.5611 C162.638,47.5611 160.829,46.9933 159.311,45.9634 C157.805,46.9933 155.996,47.5611 154.135,47.5611 C152.286,47.5611 150.477,46.9933 148.959,45.9634 C147.453,46.9933 145.644,47.5611 143.783,47.5611 C141.921,47.5611 140.125,46.9933 138.607,45.9634 C137.101,46.9933 135.292,47.5611 133.431,47.5611 C132.916,47.5611 132.414,47.5215 131.925,47.429 L132.361,49.1192 C133.246,52.5258 136.692,55.193 140.204,55.193 L168.408,55.193 C171.92,55.193 175.367,52.5258 176.251,49.1192 L176.7,47.3762 C176.106,47.4951 175.486,47.5611 174.852,47.5611 Z M138.607,42.9529 C139.874,44.3789 141.736,45.2768 143.783,45.2768 C145.842,45.2768 147.691,44.3789 148.959,42.9529 C150.239,44.3789 152.088,45.2768 154.135,45.2768 C156.194,45.2768 158.043,44.3789 159.311,42.9529 C160.591,44.3789 162.44,45.2768 164.487,45.2768 C166.546,45.2768 168.395,44.3789 169.663,42.9529 C170.943,44.3789 172.792,45.2768 174.839,45.2768 C178.668,45.2768 181.771,42.1738 181.771,38.3446 C181.771,34.8324 179.143,31.9143 175.736,31.4785 C173.875,29.2866 167.246,22.7374 154.306,22.7374 C141.327,22.7374 134.461,29.3263 132.559,31.4785 C129.152,31.9011 126.498,34.8192 126.498,38.3446 C126.498,42.1738 129.615,45.2768 133.431,45.2768 C135.49,45.2768 137.339,44.3789 138.607,42.9529 Z M160.393,28.2963 C160.882,27.887 161.595,27.953 162.004,28.4416 L163.866,30.6599 C164.262,31.1352 164.209,31.8614 163.721,32.2576 C163.509,32.4424 163.245,32.5216 162.995,32.5216 C162.664,32.5216 162.348,32.3896 162.123,32.1255 L160.261,29.9072 C159.852,29.4187 159.918,28.7057 160.393,28.2963 Z M153.171,28.8245 C153.171,28.2039 153.672,27.689 154.306,27.689 C154.94,27.689 155.442,28.2039 155.442,28.8245 L155.442,31.7294 C155.442,32.35 154.94,32.865 154.306,32.865 C153.672,32.865 153.171,32.35 153.171,31.7294 L153.171,28.8245 Z M144.747,30.6599 L146.608,28.4416 C147.018,27.953 147.731,27.887 148.219,28.2963 C148.695,28.7057 148.761,29.4187 148.351,29.9072 L146.503,32.1255 C146.265,32.3896 145.948,32.5216 145.618,32.5216 C145.367,32.5216 145.103,32.4424 144.892,32.2576 C144.403,31.8614 144.35,31.1352 144.747,30.6599 Z"/>
  </g>
</svg>
