<?xml version="1.0" encoding="utf-8"?><svg xmlns="http://www.w3.org/2000/svg" xmlns:xlink="http://www.w3.org/1999/xlink"><symbol viewBox="0 0 76 24" id="arrow" xmlns="http://www.w3.org/2000/svg"><path d="M.94 10.94a1.5 1.5 0 0 0 0 2.12l9.545 9.547a1.5 1.5 0 1 0 2.122-2.122L4.12 12l8.486-8.485a1.5 1.5 0 1 0-2.122-2.122L.94 10.94zM76 10.5H2v3h74v-3z"/></symbol><symbol viewBox="0 0 20 25" id="basket" xmlns="http://www.w3.org/2000/svg"><path d="M18.598 5.6l1.39 15.82.012.025v.05c0 .978-.455 1.854-1.162 2.49A4.14 4.14 0 0 1 16.096 25H3.891a4.164 4.164 0 0 1-2.741-1.016C.442 23.35 0 22.474 0 21.496v-.077L1.402 5.6a.87.87 0 0 1 .291-.596.944.944 0 0 1 .606-.229h2.654A5.088 5.088 0 0 1 6.43 1.486 5.02 5.02 0 0 1 9.994 0c1.39 0 2.653.571 3.575 1.486a5.075 5.075 0 0 1 1.466 3.288h2.653a.95.95 0 0 1 .619.229.926.926 0 0 1 .29.596zm-6.305-2.832a3.271 3.271 0 0 0-2.3-.952c-.896 0-1.705.368-2.286.952a3.29 3.29 0 0 0-.948 2.006h6.469a3.275 3.275 0 0 0-.935-2.006zM3.891 23.172h12.205c.594 0 1.112-.19 1.49-.495.367-.305.595-.699.607-1.143L16.867 6.59h-1.82v1.815a.914.914 0 0 1-.265.648.897.897 0 0 1-1.276 0 .914.914 0 0 1-.265-.648V6.59H6.747v1.815a.914.914 0 0 1-.266.648.897.897 0 0 1-1.276 0 .914.914 0 0 1-.265-.648V6.59H3.12L1.808 21.52c.012.444.24.85.594 1.155.379.305.91.496 1.49.496z"/></symbol><symbol viewBox="0 0 12 12" id="close" xmlns="http://www.w3.org/2000/svg"><path d="M5.69 4.275L9.671.293a1 1 0 1 1 1.414 1.414L7.104 5.69l3.982 3.983a1 1 0 1 1-1.414 1.414L5.689 7.104l-3.982 3.982A1 1 0 1 1 .293 9.672l3.982-3.983L.293 1.707A1 1 0 1 1 1.707.293L5.69 4.275z"/></symbol><symbol viewBox="0 0 7 17" id="facebook" xmlns="http://www.w3.org/2000/svg"><path d="M1.515 3.264v2.204H0v2.7h1.515v8.006h3.103V8.167h2.089s.195-1.29.28-2.7H4.63v-1.85c0-.275.342-.64.672-.64H7V.174H4.691c-3.262 0-3.176 2.699-3.176 3.09z"/></symbol><symbol viewBox="0 0 19 18" id="instagram" xmlns="http://www.w3.org/2000/svg"><path d="M13.137 0H5.074A4.976 4.976 0 0 0 .113 4.962v8.063C.112 15.767 2.345 18 5.074 18h8.063a4.982 4.982 0 0 0 4.975-4.975V4.962C18.112 2.232 15.88 0 13.137 0zm3.368 13.025a3.365 3.365 0 0 1-3.368 3.368H5.074a3.373 3.373 0 0 1-3.367-3.368V4.962a3.381 3.381 0 0 1 3.367-3.367h8.063a3.373 3.373 0 0 1 3.368 3.367v8.063z"/><path d="M9.106 4.363a4.639 4.639 0 0 0-4.631 4.63 4.641 4.641 0 0 0 4.63 4.644 4.644 4.644 0 0 0 4.644-4.643 4.641 4.641 0 0 0-4.643-4.631zm0 7.68a3.043 3.043 0 1 1 3.049-3.049 3.049 3.049 0 0 1-3.05 3.049zM13.94 3.01c-.307 0-.613.114-.83.344a1.17 1.17 0 0 0-.344.83c0 .305.128.599.344.816.217.217.523.344.83.344.306 0 .612-.127.829-.344a1.16 1.16 0 0 0 .344-.817c0-.319-.127-.612-.344-.829a1.137 1.137 0 0 0-.83-.344z"/></symbol><symbol viewBox="0 0 27 25" id="login" xmlns="http://www.w3.org/2000/svg"><path d="M11.407 9.158a1.231 1.231 0 0 1 .102-1.74 1.23 1.23 0 0 1 1.736.088l3.727 4.124a1.217 1.217 0 0 1 0 1.74l-4.094 4.074a1.245 1.245 0 0 1-1.75 0 1.229 1.229 0 0 1 0-1.74l1.978-1.968H1.242A1.241 1.241 0 0 1 0 12.5c0-.681.558-1.236 1.242-1.236h12.08l-1.915-2.106zm-3.98-3.897c-.481.48-1.267.454-1.736-.025a1.217 1.217 0 0 1 .025-1.74A12.542 12.542 0 0 1 14.665.002a12.53 12.53 0 0 1 8.822 3.822 12.41 12.41 0 0 1 3.51 8.903 12.407 12.407 0 0 1-3.84 8.777 12.522 12.522 0 0 1-8.948 3.494 12.53 12.53 0 0 1-8.822-3.822 1.229 1.229 0 1 1 1.774-1.702 10.134 10.134 0 0 0 7.086 3.077 10.195 10.195 0 0 0 7.199-2.812 10.035 10.035 0 0 0 3.093-7.05 9.98 9.98 0 0 0-2.827-7.163 10.135 10.135 0 0 0-7.085-3.077 10.087 10.087 0 0 0-7.2 2.812z"/></symbol><symbol viewBox="0 0 28 23" id="navbar-toggler" xmlns="http://www.w3.org/2000/svg"><path d="M1.448 23C.724 23 0 22.289 0 21.577c0-.948.724-1.66 1.448-1.66h21.966c.724 0 1.448.712 1.448 1.66 0 .712-.724 1.423-1.448 1.423H1.448zm0-20.155C.724 2.845 0 2.371 0 1.423 0 .71.724 0 1.448 0h25.104C27.276 0 28 .711 28 1.423c0 .948-.724 1.422-1.448 1.422H1.448zm0 9.5C.724 12.345 0 11.634 0 10.923 0 9.974.724 9.5 1.448 9.5h18.587c.724 0 1.448.474 1.448 1.423 0 .711-.724 1.422-1.448 1.422H1.448z"/></symbol><symbol viewBox="0 0 25 23" id="search" xmlns="http://www.w3.org/2000/svg"><path d="M10.837 0A10.97 10.97 0 0 1 18.5 3.079c1.964 1.905 3.174 4.53 3.174 7.432 0 2.272-.742 4.367-2.004 6.083l4.905 4.265c.52.454.572 1.224.104 1.729a1.286 1.286 0 0 1-1.782.1l-4.918-4.265a11.041 11.041 0 0 1-7.142 2.6c-2.992 0-5.711-1.174-7.663-3.08C1.21 16.039 0 13.414 0 10.512S1.21 4.984 3.174 3.08C5.126 1.174 7.844 0 10.837 0zm5.867 4.82a8.444 8.444 0 0 0-5.867-2.36A8.42 8.42 0 0 0 4.97 4.82c-1.51 1.464-2.433 3.47-2.433 5.691 0 2.221.924 4.24 2.433 5.692a8.42 8.42 0 0 0 5.867 2.36c2.29 0 4.358-.91 5.867-2.36a7.91 7.91 0 0 0 2.42-5.691c0-2.221-.924-4.228-2.42-5.692z"/></symbol><symbol viewBox="0 0 17 14" id="twitter" xmlns="http://www.w3.org/2000/svg"><path d="M16.364 2.096a6.957 6.957 0 0 1-1.874.519A3.31 3.31 0 0 0 15.936.792a6.671 6.671 0 0 1-2.075.797A3.267 3.267 0 0 0 11.483.551a3.28 3.28 0 0 0-3.27 3.279c0 .266.037.506.088.747a9.19 9.19 0 0 1-6.718-3.418 3.18 3.18 0 0 0-.44 1.646A3.28 3.28 0 0 0 2.59 5.539a3.208 3.208 0 0 1-1.472-.418v.038a3.285 3.285 0 0 0 2.604 3.228 3.106 3.106 0 0 1-.856.114 3.39 3.39 0 0 1-.616-.064 3.268 3.268 0 0 0 3.044 2.279 6.525 6.525 0 0 1-4.05 1.405c-.252 0-.516-.013-.768-.05a9.152 9.152 0 0 0 4.994 1.48c6 0 9.284-5 9.284-9.329l-.013-.43a6.482 6.482 0 0 0 1.623-1.696z"/></symbol></svg>